<svg width="1404" height="502" viewBox="0 0 1404 502" fill="none" xmlns="http://www.w3.org/2000/svg">
    <path d="M1395.67 105.55C1392.37 88.07 1385.98 71 1376.18 55.8C1354.98 22.92 1317.2 7.37 1279.18 7.3C1244.75 7.24 1209.91 7.21666 1174.64 7.23C1173.5 7.23 1172.36 7.12666 1171.21 6.92C1171.09 6.89798 1170.96 6.90294 1170.84 6.93453C1170.73 6.96612 1170.61 7.02357 1170.52 7.10279C1170.43 7.18201 1170.35 7.28107 1170.3 7.39292C1170.25 7.50478 1170.22 7.62669 1170.22 7.75L1170.23 346.54C1170.23 346.883 1170.37 347.212 1170.61 347.456C1170.85 347.699 1171.18 347.837 1171.52 347.84C1204.89 347.907 1238.38 347.933 1272 347.92C1279.19 347.92 1285.16 347.703 1289.91 347.27C1317.67 344.72 1344.24 334.63 1363.97 314.38C1372.06 306.08 1378.69 296.497 1383.87 285.63C1386.62 279.857 1388.92 274.07 1390.76 268.27C1394.72 255.803 1397.38 242.437 1398.74 228.17C1399.29 222.41 1399.4 216.64 1399.64 210.99C1399.84 206.477 1399.94 201.973 1399.93 197.48C1399.91 181.96 1399.89 166.853 1399.88 152.16C1399.87 135.86 1398.46 120.323 1395.67 105.55Z" stroke="#A1A7C8" stroke-width="2"/>
    <path d="M607.28 249.41C607.36 249.21 607.507 249.11 607.72 249.11C622.78 249.23 639.447 249.24 657.72 249.14C664 249.107 670.243 248.65 676.45 247.77C676.74 247.729 677.036 247.774 677.299 247.901C677.563 248.027 677.782 248.229 677.93 248.48L736.74 347.16C737.007 347.6 737.397 347.82 737.91 347.82C754.837 347.793 771.757 347.79 788.67 347.81C790.18 347.81 791.72 348.13 793.22 348.3C793.633 348.347 793.84 348.163 793.84 347.75C793.84 346.643 793.533 345.577 792.92 344.55C771.04 307.857 749.07 270.987 727.01 233.94C726.924 233.794 726.868 233.632 726.846 233.463C726.824 233.295 726.837 233.124 726.882 232.961C726.928 232.797 727.006 232.645 727.112 232.512C727.219 232.38 727.35 232.27 727.5 232.19C741.573 224.55 753.177 214.147 762.31 200.98C775.75 181.6 781.13 157.04 781.8 133.76C782.16 121.52 779.96 108.67 778.68 96.21C778.24 91.8966 776.99 87.2666 774.93 82.32C772.75 77.08 770.667 71.9366 768.68 66.89C767.133 62.9633 764.873 59.12 761.9 55.36C757.23 49.46 752.99 42.93 747.33 38.23C742.483 34.21 737.573 30.4566 732.6 26.97C728.06 23.78 722.57 21.69 717.44 19.25C713.753 17.5033 709.943 15.9933 706.01 14.72C690.93 9.81998 675.413 7.34998 659.46 7.30998C623.56 7.22998 588.197 7.21664 553.37 7.26998C552.763 7.26998 552.46 7.57331 552.46 8.17998C552.387 111.833 552.393 216.453 552.48 322.04C552.48 330.2 552.23 338.21 552.63 346.45C552.646 346.774 552.779 347.083 553.005 347.318C553.23 347.553 553.534 347.699 553.86 347.73C555.76 347.903 557.653 347.983 559.54 347.97C573.56 347.903 586.78 347.837 599.2 347.77C601.267 347.763 603.24 347.903 605.12 348.19C605.332 348.221 605.549 348.207 605.756 348.149C605.962 348.091 606.154 347.991 606.318 347.854C606.483 347.717 606.616 347.547 606.709 347.355C606.803 347.163 606.854 346.953 606.86 346.74C606.973 343.34 607.04 339.983 607.06 336.67C607.227 307.363 607.207 278.753 607 250.84C607 250.34 607.093 249.863 607.28 249.41Z" stroke="#A1A7C8" stroke-width="2"/>
    <path d="M892.98 89.95C895.48 85.6566 897.277 82.8733 898.37 81.6C906.523 72.06 916.813 65.99 929.24 63.39C934.953 62.1966 940.117 61.59 944.73 61.57C964.75 61.4766 991.657 61.3966 1025.45 61.33C1026.98 61.33 1028.57 61.2833 1030.24 61.19C1030.33 61.1849 1030.42 61.1457 1030.48 61.0806C1030.54 61.0156 1030.58 60.9294 1030.58 60.84L1030.68 7.94997C1030.68 7.85197 1030.66 7.75468 1030.63 7.66375C1030.59 7.57282 1030.53 7.49006 1030.46 7.42029C1030.39 7.35051 1030.31 7.2951 1030.22 7.25728C1030.13 7.21946 1030.03 7.19998 1029.93 7.19997C1005.02 7.28664 979.987 7.28664 954.82 7.19997C938.89 7.14997 925.02 8.34997 910.77 12.62C879.303 22.0533 856.7 41.54 842.96 71.08C841.667 73.8666 840.423 76.73 839.23 79.67C836.51 86.37 834.99 92.77 833.17 99.73C831.06 107.77 830.4 115.91 829.11 124.03C828.663 126.83 828.417 129.627 828.37 132.42C828.26 139.35 827.76 146.49 827.76 153.27C827.747 216.95 827.743 281.413 827.75 346.66C827.75 346.968 827.872 347.263 828.09 347.48C828.307 347.698 828.602 347.82 828.91 347.82C845.517 347.78 862.013 347.773 878.4 347.8C879.27 347.8 880.14 348.16 880.96 348.43C881.393 348.577 881.68 348.43 881.82 347.99C882.28 346.497 882.51 344.857 882.51 343.07C882.417 274.037 882.413 206.953 882.5 141.82C882.51 134.1 883.53 126.82 884.03 119.07C884.48 112.05 886.84 105.62 888.8 99.05C889.6 96.39 890.993 93.3566 892.98 89.95Z" stroke="#A1A7C8" stroke-width="2"/>
    <path d="M1116.04 8.13002C1116.04 8.01708 1116.02 7.90525 1115.97 7.80091C1115.93 7.69657 1115.87 7.60177 1115.79 7.52191C1115.71 7.44205 1115.61 7.3787 1115.51 7.33548C1115.4 7.29226 1115.29 7.27002 1115.18 7.27002H1062.1C1061.99 7.27002 1061.88 7.29226 1061.77 7.33548C1061.67 7.3787 1061.57 7.44205 1061.49 7.52191C1061.41 7.60177 1061.35 7.69657 1061.31 7.80091C1061.26 7.90525 1061.24 8.01708 1061.24 8.13002V346.95C1061.24 347.178 1061.33 347.397 1061.49 347.558C1061.65 347.719 1061.87 347.81 1062.1 347.81H1115.18C1115.41 347.81 1115.63 347.719 1115.79 347.558C1115.95 347.397 1116.04 347.178 1116.04 346.95V8.13002Z" stroke="#A1A7C8" stroke-width="2"/>
    <path d="M207.9 104.38C214.04 99.83 218.52 91.52 218.83 84.22C219.03 79.5333 218.337 75.4333 216.75 71.92C212.45 62.42 205.13 56.02 194.21 54.55C184.62 53.27 173.24 56.68 167.36 65.1C162.107 72.62 160.403 80.5367 162.25 88.85C162.957 92.0433 164.03 94.74 165.47 96.94C167.463 99.9867 169.563 102.407 171.77 104.2C172.056 104.435 172.251 104.763 172.318 105.127C172.386 105.492 172.323 105.868 172.14 106.19C170.513 109.083 167.987 110.953 164.56 111.8C160.493 112.8 156.503 113.767 152.59 114.7C146 116.28 141.01 117.03 139.88 123.11C138.54 130.39 136.893 141.287 134.94 155.8C134.707 157.493 134.66 159.11 134.8 160.65C134.823 160.926 134.93 161.188 135.107 161.401C135.285 161.614 135.523 161.767 135.79 161.84C137.563 162.34 139.403 162.593 141.31 162.6C157.177 162.66 172.893 162.747 188.46 162.86C206.37 162.99 224.63 162.51 242.63 162.44C244.697 162.433 245.52 161.417 245.1 159.39C244.553 156.757 244.127 154.167 243.82 151.62C243.06 145.34 242.313 139.117 241.58 132.95C241.167 129.45 240.587 125.983 239.84 122.55C239.093 119.117 236.73 116.977 232.75 116.13C226.697 114.837 220.553 113.277 214.32 111.45C210.94 110.46 209.07 108.99 207.52 106.05C207.372 105.772 207.329 105.451 207.399 105.144C207.469 104.838 207.647 104.566 207.9 104.38Z" stroke="#E2B89F" stroke-width="2"/>
    <path d="M49.87 111.33C49.632 111.431 49.3686 111.456 49.1149 111.402C48.8612 111.349 48.6292 111.219 48.45 111.03C44.5767 106.977 40.8067 103.087 37.14 99.36C35.8133 98.02 34.2867 97.0634 32.56 96.49C32.2295 96.3808 31.8787 96.3472 31.5334 96.392C31.1881 96.4367 30.857 96.5584 30.5645 96.7484C30.2719 96.9383 30.0253 97.1915 29.8429 97.4894C29.6604 97.7874 29.5466 98.1224 29.51 98.47C29.3433 100.09 29.9033 101.523 31.19 102.77C36.1167 107.55 40.7633 112.12 45.13 116.48C46.2833 117.633 47.5833 118.657 49.03 119.55C49.3233 119.737 49.64 119.797 49.98 119.73C50.7867 119.57 51.4967 119.203 52.11 118.63C62.39 108.97 71.83 98.94 81.74 89.26C88.44 82.7134 95.57 75.4634 103.13 67.51C103.743 66.8634 103.743 65.84 103.13 64.44C102.95 64.0267 102.65 63.7567 102.23 63.63C100.39 63.07 98.8733 63.3667 97.68 64.52C81.8133 79.8134 66.55 94.9367 51.89 109.89C51.23 110.57 50.5567 111.05 49.87 111.33Z" stroke="#E2B89F" stroke-width="2"/>
    <path d="M13.58 106.51C15.06 96.87 19.27 89.23 26.6 83.37C33.66 77.71 40.51 74.84 50.12 74.5C51.6 74.4467 52.4233 73.6834 52.59 72.21L52.73 71.04C52.8967 69.5934 52.2533 68.89 50.8 68.93C44.62 69.11 37.5 69.82 31.81 72.48C18.42 78.74 9.59 89.93 7.99 104.6C6.41 118.96 9.34 131.8 20.24 141.85C26.58 147.697 33.31 151.323 40.43 152.73C52.9567 155.21 64.1567 152.963 74.03 145.99C85.93 137.577 92.04 125.857 92.36 110.83C92.3933 109.357 91.68 108.507 90.22 108.28L89.26 108.13C87.5667 107.863 86.6167 108.58 86.41 110.28C86.05 113.273 85.5833 116.307 85.01 119.38C83.39 128.01 77.34 135.29 70.22 140.82C63.3 146.21 55.09 147.21 46.31 146.76C26.19 145.72 10.54 126.38 13.58 106.51Z" stroke="#E2B89F" stroke-width="2"/>
    <path d="M385.67 92.45C385.669 92.0429 385.588 91.6399 385.432 91.2641C385.275 90.8882 385.046 90.5469 384.758 90.2595C384.47 89.9722 384.127 89.7444 383.751 89.5893C383.375 89.4342 382.971 89.3547 382.564 89.3554L285.645 89.5246C285.237 89.5253 284.834 89.6062 284.459 89.7627C284.083 89.9191 283.741 90.148 283.454 90.4364C283.167 90.7248 282.939 91.0669 282.784 91.4433C282.629 91.8197 282.549 92.2229 282.55 92.63L282.55 92.71C282.551 93.1171 282.632 93.5201 282.788 93.8959C282.945 94.2718 283.173 94.6131 283.462 94.9005C283.75 95.1879 284.092 95.4156 284.469 95.5707C284.845 95.7259 285.248 95.8053 285.656 95.8046L382.575 95.6354C382.982 95.6347 383.385 95.5538 383.761 95.3974C384.137 95.2409 384.478 95.012 384.766 94.7236C385.053 94.4353 385.281 94.0931 385.436 93.7167C385.591 93.3404 385.671 92.9371 385.67 92.53L385.67 92.45Z" stroke="#E2B89F" stroke-width="2"/>
    <path d="M415.02 123.845C415.021 123.015 414.693 122.219 414.107 121.631C413.521 121.043 412.726 120.711 411.896 120.71L285.976 120.49C285.565 120.489 285.158 120.57 284.778 120.726C284.397 120.883 284.052 121.113 283.761 121.403C283.47 121.693 283.239 122.038 283.081 122.417C282.923 122.797 282.841 123.204 282.84 123.615L282.84 123.855C282.838 124.685 283.167 125.482 283.753 126.07C284.339 126.658 285.134 126.989 285.964 126.99L411.884 127.21C412.295 127.211 412.702 127.13 413.082 126.974C413.462 126.817 413.808 126.587 414.099 126.297C414.39 126.007 414.621 125.662 414.779 125.283C414.937 124.903 415.019 124.496 415.02 124.085L415.02 123.845Z" stroke="#E2B89F" stroke-width="2"/>
    <path d="M990.56 177.25C990.56 173.64 989.849 170.065 988.468 166.73C987.086 163.395 985.061 160.364 982.508 157.812C979.956 155.259 976.925 153.234 973.59 151.853C970.255 150.471 966.68 149.76 963.07 149.76C959.46 149.76 955.885 150.471 952.55 151.853C949.215 153.234 946.184 155.259 943.632 157.812C941.079 160.364 939.054 163.395 937.673 166.73C936.291 170.065 935.58 173.64 935.58 177.25C935.58 184.541 938.476 191.533 943.632 196.688C948.787 201.844 955.779 204.74 963.07 204.74C970.361 204.74 977.353 201.844 982.508 196.688C987.664 191.533 990.56 184.541 990.56 177.25Z" stroke="#E2B89F" stroke-width="2"/>
    <path d="M200.73 306.9C207.72 306.85 214.48 307.09 221.24 306.67C228.52 306.223 235.263 306.21 241.47 306.63C242.397 306.69 243.21 306.543 243.91 306.19C244.823 305.717 245.203 305.017 245.05 304.09C243.197 293.163 241.683 281.617 240.51 269.45C240.16 265.87 238.82 262.03 235.31 261.11C229.05 259.477 222.45 257.767 215.51 255.98C212.41 255.18 209.41 253.68 208.05 250.65C207.84 250.182 207.786 249.658 207.898 249.157C208.01 248.656 208.281 248.205 208.67 247.87C213.29 243.95 215.8 240.03 217.72 233.77C219.507 227.923 219.32 222.423 217.16 217.27C215.37 212.98 212.9 208.26 209.29 205.31C193.77 192.65 169.79 197.37 163.05 217.26C159.23 228.52 162.79 241 172.11 248.59C172.27 248.721 172.386 248.899 172.439 249.1C172.493 249.301 172.483 249.514 172.41 249.71C170.94 253.66 167.24 255.23 163.41 256.11C157.637 257.437 151.843 258.983 146.03 260.75C141.79 262.04 140.29 264.27 139.5 268.69C137.453 280.277 135.957 291.457 135.01 302.23C134.91 303.397 134.933 304.59 135.08 305.81C135.112 306.079 135.243 306.326 135.448 306.505C135.652 306.684 135.917 306.782 136.19 306.78C152.217 306.667 168.58 306.7 185.28 306.88C190.427 306.94 195.577 306.947 200.73 306.9Z" stroke="#E2B89F" stroke-width="2"/>
    <path d="M49.44 255.71C48.9866 255.67 48.6033 255.493 48.29 255.18C44.59 251.42 40.91 247.613 37.25 243.76C35.73 242.16 33.19 240.52 30.94 240.88C28.58 241.25 29.02 244.11 30.25 245.39C36.01 251.397 41.6366 257.09 47.13 262.47C47.8106 263.138 48.7262 263.512 49.68 263.512C50.6337 263.512 51.5494 263.138 52.23 262.47C66.8233 248.097 82.0466 232.87 97.9 216.79C99.5333 215.137 101.32 213.493 103.26 211.86C104.78 210.573 104.73 209.353 103.11 208.2C102.75 207.947 102.353 207.763 101.92 207.65C99.9533 207.123 98.2533 207.58 96.82 209.02L50.55 255.3C50.4061 255.444 50.2323 255.555 50.0407 255.626C49.8491 255.697 49.6442 255.726 49.44 255.71Z" stroke="#E2B89F" stroke-width="2"/>
    <path d="M74.9899 281.44C72.9833 283.48 70.6733 285.197 68.0599 286.59C58.8733 291.483 49.4566 292.643 39.8099 290.07C29.1199 287.23 21.4199 280.16 16.3699 270.59C15.6633 269.243 15.1199 267.883 14.7399 266.51C11.3299 254.11 12.9799 242.17 21.2799 232.42C29.0299 223.31 38.1499 218.75 50.1099 218.54C51.8233 218.513 52.7099 217.643 52.7699 215.93L52.7799 215.44C52.8333 214.08 52.1766 213.38 50.8099 213.34C42.1033 213.113 34.4566 214.99 27.8699 218.97C17.3899 225.3 9.56995 236.23 7.84995 248.35C6.29995 259.32 8.83995 272.38 15.7099 280.93C20.3433 286.697 26.6966 291.347 34.7699 294.88C42.4999 298.26 53.2099 298.69 61.5599 295.82C67.3266 293.833 71.5933 291.827 74.3599 289.8C85.7799 281.44 91.7333 269.803 92.2199 254.89C92.2369 254.357 92.0663 253.834 91.7377 253.412C91.4091 252.991 90.943 252.696 90.4199 252.58C89.8799 252.46 89.3599 252.44 88.8599 252.52C87.2666 252.78 86.4366 253.717 86.3699 255.33C85.9566 265.43 82.1633 274.133 74.9899 281.44Z" stroke="#E2B89F" stroke-width="2"/>
    <path d="M385.48 236.64C385.48 235.73 385.119 234.858 384.475 234.215C383.832 233.571 382.96 233.21 382.05 233.21H286.25C285.34 233.21 284.468 233.571 283.825 234.215C283.181 234.858 282.82 235.73 282.82 236.64V236.78C282.82 237.69 283.181 238.562 283.825 239.205C284.468 239.849 285.34 240.21 286.25 240.21H382.05C382.96 240.21 383.832 239.849 384.475 239.205C385.119 238.562 385.48 237.69 385.48 236.78V236.64Z" stroke="#D2BDB2" stroke-width="2"/>
    <path d="M414.79 269.73V266.33C414.79 265.956 414.641 265.597 414.377 265.333C414.112 265.069 413.754 264.92 413.38 264.92H287.43C286.194 264.92 285.009 265.162 284.135 265.594C283.261 266.025 282.77 266.61 282.77 267.22V268.84C282.77 269.45 283.261 270.035 284.135 270.466C285.009 270.898 286.194 271.14 287.43 271.14H413.38C413.754 271.14 414.112 270.991 414.377 270.727C414.641 270.463 414.79 270.104 414.79 269.73Z" stroke="#E2B89F" stroke-width="2"/>
    <path d="M170.67 349.65C168.03 351.86 165.38 355.88 164.07 358.71C158.53 370.73 161.93 383.31 171.48 392.47C171.91 392.882 172.17 393.439 172.211 394.032C172.252 394.626 172.069 395.214 171.7 395.68C169.71 398.22 167.54 398.73 163.84 399.92C158.667 401.587 153.907 402.867 149.56 403.76C144.24 404.86 140.57 406.68 139.6 412.35C137.527 424.457 135.92 436.433 134.78 448.28C134.736 448.74 134.859 449.201 135.127 449.578C135.395 449.954 135.791 450.221 136.24 450.33C137.74 450.69 139.117 450.867 140.37 450.86C155.77 450.8 171.573 450.837 187.78 450.97C204.3 451.12 220.87 450.77 237.65 450.55C239.48 450.52 241.26 450.84 243.08 450.74C244.707 450.647 245.38 449.773 245.1 448.12C243.373 437.767 241.927 426.26 240.76 413.6C240.307 408.627 237.607 405.553 232.66 404.38C225.827 402.76 219.107 400.953 212.5 398.96C209.6 398.09 206.45 394.9 209 391.99C214.22 386.03 218.18 380.75 218.77 372.67C219.203 366.677 218.177 361.637 215.69 357.55C212.96 353.06 209.15 348.36 204.28 345.97C192.02 339.943 180.817 341.17 170.67 349.65Z" stroke="#E2B89F" stroke-width="2"/>
    <path d="M98.8499 351.9C93.6099 356.37 88.5999 361.41 83.8199 366.12C72.5132 377.247 61.3199 388.33 50.2399 399.37C50.0403 399.567 49.7713 399.678 49.492 399.678C49.2127 399.678 48.9458 399.567 48.7499 399.37L33.9899 384.68C33.7301 384.423 33.4079 384.238 33.0542 384.142C32.7005 384.046 32.3271 384.041 31.9699 384.13C31.0099 384.363 30.3332 384.83 29.9399 385.53C28.9599 387.257 29.1899 388.81 30.6299 390.19C36.0432 395.37 41.2966 400.667 46.3899 406.08C47.9599 407.75 49.5099 408.89 51.4499 407.21C54.4099 404.67 56.9199 402.27 58.9799 400.01C63.6399 394.88 68.7499 390.45 73.6099 385.42C81.4166 377.327 89.3166 369.437 97.3099 361.75C99.2099 359.93 100.79 357.89 102.71 356.1C105.25 353.72 102.37 348.9 98.8499 351.9Z" stroke="#E2B89F" stroke-width="2"/>
    <path d="M21.04 430.8C32.47 440.22 46.5 444.33 60.86 440.22C68.14 438.14 74.3133 434.657 79.38 429.77C87.72 421.743 92.03 411.34 92.31 398.56C92.3433 396.92 91.5366 396.133 89.89 396.2L89.31 396.23C87.4833 396.31 86.48 397.26 86.3 399.08C85.63 405.76 84.51 412.55 80.82 418.06C78.2333 421.92 74.9566 425.467 70.99 428.7C61.85 436.15 48.3 436.87 37.15 433.46C30.6 431.45 25.47 426.62 21.07 421.41C18.1766 417.99 16.1933 414.757 15.12 411.71C11.24 400.66 12.82 388.02 19.66 378.77C25.9666 370.237 33.8966 365.16 43.45 363.54C46.2566 363.06 48.9966 362.577 51.67 362.09C52.0627 362.019 52.425 361.832 52.7101 361.554C52.9953 361.276 53.1902 360.919 53.27 360.53C53.87 357.56 50.06 357.06 47.9 357.15C42.78 357.377 37.73 358.413 32.75 360.26C28.53 361.827 24.5866 364.323 20.92 367.75C10.16 377.803 5.83663 390.627 7.94996 406.22C8.59663 410.973 9.92663 415.22 11.94 418.96C14.7533 424.173 17.7866 428.12 21.04 430.8Z" stroke="#E2B89F" stroke-width="2"/>
    <path d="M385.231 380.209C385.232 379.89 385.169 379.574 385.048 379.279C384.926 378.984 384.748 378.716 384.522 378.49C384.297 378.264 384.029 378.084 383.735 377.962C383.44 377.839 383.124 377.776 382.805 377.775L285.365 377.605C284.721 377.604 284.102 377.859 283.646 378.314C283.189 378.769 282.932 379.386 282.931 380.031L282.929 381.271C282.928 381.59 282.991 381.906 283.112 382.201C283.234 382.496 283.412 382.764 283.638 382.99C283.863 383.216 284.131 383.396 284.425 383.518C284.72 383.641 285.036 383.704 285.355 383.705L382.795 383.875C383.439 383.876 384.058 383.621 384.514 383.166C384.971 382.711 385.228 382.094 385.229 381.449L385.231 380.209Z" stroke="#E2B89F" stroke-width="2"/>
    <path d="M900.09 425.59C897.897 424.97 895.627 424.347 893.28 423.72C883.41 421.12 870.57 424.04 865.92 434.24C861.82 443.27 861.98 455.92 865.97 464.91C871.34 477.01 885.12 478.3 896.45 476.21C899.46 475.65 902.43 474.01 904.99 472.37C907.94 470.47 908.42 465.54 908.41 462.44C908.397 445.3 908.327 427.173 908.2 408.06C908.187 406.16 908.05 404.283 907.79 402.43C907.657 401.51 907.127 401.073 906.2 401.12L901.76 401.34C901.04 401.38 900.683 401.76 900.69 402.48L900.85 425C900.857 425.54 900.603 425.737 900.09 425.59Z" stroke="#D2BDB2" stroke-width="2"/>
    <path d="M618.02 453.79C626.833 454.037 635.653 453.993 644.48 453.66C645.06 453.636 645.633 453.795 646.119 454.114C646.605 454.433 646.98 454.897 647.19 455.44L654.14 473.43C654.408 474.119 654.878 474.711 655.488 475.129C656.098 475.546 656.82 475.77 657.56 475.77L661.03 475.76C662.73 475.753 663.23 474.977 662.53 473.43C660.203 468.27 657.833 462.617 655.42 456.47C648.807 439.637 642.397 423.507 636.19 408.08C635.71 406.88 634.903 406.153 633.77 405.9C631.02 405.27 628.17 405.49 626.95 408.55C618.09 430.663 609.39 452.427 600.85 473.84C600.417 474.927 600.783 475.51 601.95 475.59L606 475.86C606.524 475.893 607.047 475.778 607.509 475.529C607.97 475.28 608.352 474.906 608.61 474.45C609.403 473.05 610.04 471.643 610.52 470.23C612.273 465.103 614.253 459.953 616.46 454.78C616.753 454.1 617.273 453.77 618.02 453.79Z" stroke="#D2BDB2" stroke-width="2"/>
    <path d="M1221.11 455.2L1228.08 473.44C1228.34 474.119 1228.78 474.709 1229.37 475.138C1229.96 475.568 1230.65 475.818 1231.38 475.86L1234.53 476.05C1236.17 476.15 1236.74 475.42 1236.23 473.86C1235.53 471.707 1234.74 469.56 1233.87 467.42C1229.1 455.76 1224.93 444.19 1219.86 432.3C1216.64 424.76 1213.57 417.12 1210.64 409.38C1210.08 407.9 1209.77 406.45 1208.04 406.06C1206.54 405.727 1205 405.64 1203.41 405.8C1202.66 405.88 1202.12 406.26 1201.79 406.94C1200.7 409.14 1199.74 411.317 1198.89 413.47C1192.32 430.097 1185.74 446.72 1179.15 463.34C1177.81 466.72 1176.4 470.28 1174.92 474.02C1174.4 475.34 1174.85 475.997 1176.27 475.99L1179.39 475.96C1180.19 475.955 1180.97 475.71 1181.62 475.257C1182.28 474.804 1182.79 474.164 1183.08 473.42L1190.09 455.59C1190.5 454.557 1191.26 454.033 1192.37 454.02L1219.02 453.78C1219.47 453.775 1219.91 453.908 1220.29 454.162C1220.66 454.416 1220.95 454.778 1221.11 455.2Z" stroke="#D2BDB2" stroke-width="2"/>
    <path d="M415.05 411.47C415.05 410.804 414.786 410.166 414.315 409.695C413.844 409.224 413.206 408.96 412.54 408.96H285.34C284.674 408.96 284.036 409.224 283.565 409.695C283.094 410.166 282.83 410.804 282.83 411.47V412.65C282.83 412.98 282.895 413.306 283.021 413.611C283.147 413.915 283.332 414.192 283.565 414.425C283.798 414.658 284.075 414.843 284.379 414.969C284.684 415.095 285.01 415.16 285.34 415.16H412.54C412.87 415.16 413.196 415.095 413.501 414.969C413.805 414.843 414.082 414.658 414.315 414.425C414.548 414.192 414.733 413.915 414.859 413.611C414.985 413.306 415.05 412.98 415.05 412.65V411.47Z" stroke="#E2B89F" stroke-width="2"/>
    <path d="M684.31 422.89C684.237 421.15 684.257 419.34 684.37 417.46C684.52 415.14 683.95 412.83 683.26 410.64C682.98 409.78 682.407 409.273 681.54 409.12C678.72 408.633 677.24 409.81 677.1 412.65C676.94 415.897 676.897 419.18 676.97 422.5C676.974 422.674 676.943 422.848 676.878 423.01C676.813 423.172 676.716 423.319 676.593 423.443C676.469 423.566 676.322 423.663 676.16 423.728C675.998 423.793 675.824 423.824 675.65 423.82L669.64 423.7C669.318 423.696 669.005 423.811 668.765 424.024C668.524 424.237 668.372 424.532 668.34 424.85L667.98 428.44C667.873 429.513 668.36 430.09 669.44 430.17L675.9 430.62C676.197 430.64 676.475 430.775 676.676 430.997C676.877 431.218 676.986 431.51 676.98 431.81C676.76 443.177 676.713 453.357 676.84 462.35C676.88 464.97 677.443 467.597 678.53 470.23C680.97 476.11 689.99 476.8 695.49 475.85C697.337 475.53 698.287 474.433 698.34 472.56L698.39 470.42C698.43 468.9 697.71 468.297 696.23 468.61C694.077 469.063 691.547 469.187 688.64 468.98C685.31 468.74 684.5 464.24 684.52 461.59C684.607 450.13 684.467 439.843 684.1 430.73C684.094 430.613 684.113 430.496 684.155 430.387C684.198 430.277 684.262 430.178 684.345 430.095C684.428 430.012 684.527 429.948 684.637 429.905C684.746 429.863 684.863 429.844 684.98 429.85L696.13 430.27C697.27 430.317 697.837 429.767 697.83 428.62L697.81 426.27C697.803 424.81 697.073 424.13 695.62 424.23C692.187 424.463 688.817 424.433 685.51 424.14C685.191 424.111 684.894 423.969 684.673 423.739C684.453 423.509 684.323 423.207 684.31 422.89Z" stroke="#D2BDB2" stroke-width="2"/>
    <path d="M713.2 423.32L707.51 423.99C707.128 424.033 706.772 424.204 706.5 424.477C706.227 424.749 706.055 425.106 706.01 425.49L705.72 428.11C705.607 429.083 706.023 429.7 706.97 429.96C709.263 430.573 711.59 430.897 713.95 430.93C714.082 430.933 714.212 430.961 714.333 431.014C714.454 431.067 714.564 431.143 714.655 431.238C714.746 431.333 714.817 431.444 714.864 431.567C714.912 431.689 714.934 431.819 714.93 431.95C714.67 441.97 714.61 452.053 714.75 462.2C714.82 467.94 716.38 473.21 722.5 475.17C726.08 476.32 731.68 477.02 735.23 475.28C735.565 475.114 735.84 474.847 736.015 474.517C736.191 474.187 736.259 473.811 736.21 473.44L735.64 469.04C735.622 468.91 735.577 468.786 735.507 468.676C735.436 468.566 735.343 468.473 735.233 468.403C735.123 468.333 735 468.289 734.871 468.273C734.743 468.257 734.613 468.269 734.49 468.31C732.63 468.923 730.413 469.2 727.84 469.14C722.91 469.02 722.36 464.69 722.32 460.89C722.233 450.95 722.163 441.06 722.11 431.22C722.103 430.4 722.507 430.047 723.32 430.16C726.48 430.6 729.827 430.66 733.36 430.34C735.2 430.173 736.1 429.163 736.06 427.31L736.05 426.43C736.01 424.743 735.147 423.83 733.46 423.69C730.273 423.43 726.987 423.48 723.6 423.84C723.437 423.858 723.272 423.842 723.115 423.794C722.958 423.745 722.812 423.665 722.688 423.558C722.563 423.451 722.462 423.32 722.39 423.173C722.318 423.025 722.277 422.864 722.27 422.7L721.73 411.34C721.65 409.687 720.787 408.89 719.14 408.95L718.41 408.97C716.23 409.05 715.087 410.173 714.98 412.34L714.51 421.93C714.463 422.757 714.027 423.22 713.2 423.32Z" stroke="#D2BDB2" stroke-width="2"/>
    <path d="M958.11 446.66C958.106 446.721 958.088 446.779 958.056 446.831C958.024 446.882 957.98 446.926 957.928 446.956C957.875 446.987 957.816 447.004 957.756 447.006C957.695 447.009 957.635 446.996 957.58 446.97C949.867 443.323 942.017 442.58 934.03 444.74C926.957 446.653 923.197 451.433 922.75 459.08C922.49 463.47 923.49 469.76 927.34 472.44C935.55 478.16 947.3 478.07 956.57 475.58C959.017 474.92 961.193 473.77 963.1 472.13C966.28 469.4 966.17 459.46 966 455.82C965.847 452.66 965.827 449.29 965.94 445.71C966.19 437.78 965.92 429.28 958.04 425.18C950.28 421.15 941.7 423 933.34 424.49C928.52 425.35 926.767 428.227 928.08 433.12C928.102 433.204 928.143 433.283 928.2 433.348C928.257 433.414 928.329 433.466 928.411 433.5C928.492 433.534 928.58 433.548 928.668 433.543C928.756 433.538 928.843 433.513 928.92 433.47C933.16 431.09 937.98 429.88 942.74 429.4C948.81 428.77 956.88 430.93 957.84 438.21C958.227 441.11 958.317 443.927 958.11 446.66Z" stroke="#D2BDB2" stroke-width="2"/>
    <path d="M1054 424.24C1047.56 426.467 1043.41 430.207 1041.56 435.46C1039.1 442.45 1038.78 449.9 1039.97 457.32C1040.87 462.95 1042.99 468.97 1048.14 471.96C1057.33 477.293 1066.94 478.02 1076.95 474.14C1079.06 473.327 1079.93 471.833 1079.57 469.66C1079.56 469.573 1079.55 469.483 1079.54 469.39C1079.43 467.163 1078.26 466.453 1076.01 467.26C1069.62 469.547 1063.33 469.83 1057.13 468.11C1046.6 465.19 1046.81 453.96 1047.39 444.96C1047.83 438.01 1050.13 432.69 1057.6 430.86C1063.53 429.407 1069.72 429.723 1076.19 431.81C1078.44 432.537 1079.55 431.763 1079.5 429.49C1079.5 429.39 1079.5 429.29 1079.51 429.19C1079.68 427.043 1078.75 425.6 1076.72 424.86C1068.78 421.96 1061.21 421.753 1054 424.24Z" stroke="#D2BDB2" stroke-width="2"/>
    <path d="M1254.78 474.71C1254.78 474.64 1254.8 474.57 1254.83 474.508C1254.86 474.446 1254.91 474.393 1254.97 474.353C1255.03 474.314 1255.09 474.289 1255.16 474.282C1255.23 474.274 1255.3 474.284 1255.37 474.31C1264.65 478.183 1273.52 477.907 1281.99 473.48C1290.05 469.27 1293.26 457.56 1292.75 449.06C1292.26 440.91 1290.42 432.55 1283.54 427.53C1274.09 420.63 1260.62 421.54 1250.63 426.76C1247.83 428.23 1247.45 434.06 1247.45 436.84C1247.46 452.973 1247.47 470.2 1247.5 488.52C1247.5 490.867 1247.4 493.417 1247.21 496.17C1247.1 497.657 1247.79 498.42 1249.28 498.46L1253.12 498.56C1254.44 498.593 1255.09 497.95 1255.08 496.63L1254.78 474.71Z" stroke="#D2BDB2" stroke-width="2"/>
    <path d="M1315 473.91C1319.31 476.323 1324.35 477.293 1330.13 476.82C1350.16 475.19 1354.58 457.14 1350.86 440.32C1348.63 430.25 1339.96 423.46 1329.85 422.75C1323.48 422.303 1317.25 423.447 1311.14 426.18C1306.74 428.14 1306.83 432.24 1306.83 436.41C1306.84 457.71 1306.82 477.883 1306.77 496.93C1306.77 497.97 1307.29 498.513 1308.33 498.56L1312.44 498.73C1313.4 498.77 1313.9 498.31 1313.93 497.35C1314.06 493.4 1314.29 489.52 1314.12 485.6C1313.95 481.86 1313.96 478.123 1314.14 474.39C1314.14 474.292 1314.17 474.196 1314.23 474.112C1314.28 474.028 1314.35 473.959 1314.44 473.911C1314.52 473.863 1314.62 473.838 1314.72 473.838C1314.82 473.837 1314.91 473.862 1315 473.91Z" stroke="#D2BDB2" stroke-width="2"/>
    <path d="M754.71 451.02C754.97 450.907 755.24 450.847 755.52 450.84C765.967 450.713 776.77 450.803 787.93 451.11C789.397 451.15 790.73 450.973 791.93 450.58C792.092 450.526 792.23 450.42 792.323 450.278C792.416 450.136 792.457 449.967 792.44 449.8C791.65 441.51 790.17 429.73 781.5 425.55C777.387 423.563 773.063 422.647 768.53 422.8C753.71 423.29 747.52 433.04 746.86 446.49C746.46 454.6 747.12 460.52 750.88 467.53C753.36 472.15 758.23 474.8 762.98 476.1C770.13 478.06 779.69 477.36 787.44 474.23C788.767 473.697 789.393 472.717 789.32 471.29L789.14 467.57C789.067 466.177 788.41 465.8 787.17 466.44C781.263 469.48 774.973 470.613 768.3 469.84C758.42 468.7 754.73 460.97 754.27 451.75C754.264 451.598 754.303 451.447 754.381 451.318C754.46 451.188 754.574 451.084 754.71 451.02Z" stroke="#D2BDB2" stroke-width="2"/>
    <path d="M813.9 432.65C813.9 432.43 813.969 432.216 814.096 432.037C814.223 431.858 814.403 431.723 814.61 431.65C821.37 429.16 837.81 427.09 840.38 436.74C841.067 439.32 841.417 442.073 841.43 445C841.47 454.78 841.403 464.303 841.23 473.57C841.203 475.09 841.95 475.817 843.47 475.75L846.98 475.59C848.5 475.523 849.24 474.73 849.2 473.21C848.987 463.983 848.89 454.28 848.91 444.1C848.93 437.04 848.28 429.9 842.02 425.74C838.52 423.42 833.19 422.85 828.97 422.76C820.957 422.6 813.613 424.173 806.94 427.48C806.52 427.687 806.31 428.027 806.31 428.5L806.27 473.26C806.27 474.913 807.097 475.747 808.75 475.76L811.13 475.78C812.91 475.787 813.803 474.9 813.81 473.12L813.9 432.65Z" stroke="#D2BDB2" stroke-width="2"/>
    <path d="M984.96 475.66L987.62 475.74C989.413 475.793 990.303 474.923 990.29 473.13L990.04 432.47C990.033 431.97 990.27 431.643 990.75 431.49C995.617 429.917 1000.54 429.3 1005.52 429.64C1012.71 430.13 1017.53 433.34 1017.64 441.06C1017.79 451.767 1017.81 462.41 1017.72 472.99C1017.71 474.917 1018.66 475.837 1020.58 475.75L1023.25 475.64C1024.66 475.58 1025.37 474.843 1025.37 473.43C1025.38 463.577 1025.42 453.52 1025.48 443.26C1025.52 435.59 1023.81 426.99 1015.51 424.49C1004.66 421.2 994.26 422.93 984.02 427.2C983.664 427.346 983.36 427.594 983.144 427.912C982.929 428.231 982.813 428.606 982.81 428.99L982.4 473C982.387 474.727 983.24 475.613 984.96 475.66Z" stroke="#D2BDB2" stroke-width="2"/>
    <path d="M1098.84 451.44C1099.91 450.94 1101.06 450.697 1102.31 450.71C1113.05 450.837 1123.96 450.797 1135.03 450.59C1135.24 450.586 1135.44 450.541 1135.63 450.456C1135.82 450.371 1135.99 450.248 1136.13 450.096C1136.27 449.943 1136.37 449.764 1136.44 449.568C1136.51 449.373 1136.54 449.166 1136.52 448.96C1135.76 439.25 1132.48 427.77 1122.78 424.31C1117.11 422.283 1111.31 422.147 1105.39 423.9C1092.5 427.72 1089.95 441.66 1090.88 453.49C1091.57 462.28 1095.54 472.22 1104.66 475.22C1113.05 477.987 1121.79 477.707 1130.88 474.38C1132.53 473.773 1133.34 472.587 1133.3 470.82C1133.27 469.767 1133.19 468.76 1133.04 467.8C1132.77 466.02 1131.9 465.637 1130.41 466.65C1125.93 469.71 1119.34 470.41 1114 470.26C1103.42 469.96 1099.02 461.7 1098.36 452.26C1098.33 451.873 1098.49 451.6 1098.84 451.44Z" stroke="#D2BDB2" stroke-width="2"/>
    <path d="M1328.36 80.45C1316.53 66.69 1298.55 61.61 1280.26 61.48C1262.25 61.3533 1244.19 61.3733 1226.08 61.54C1225.74 61.5426 1225.41 61.6808 1225.17 61.9243C1224.93 62.1678 1224.79 62.4969 1224.79 62.84C1224.78 139.053 1224.77 213.23 1224.78 285.37C1224.78 287.75 1224.86 290.1 1225.02 292.42C1225.03 292.601 1225.11 292.771 1225.25 292.893C1225.38 293.016 1225.56 293.083 1225.74 293.08C1243.21 293.033 1260.34 293 1277.13 292.98C1281.42 292.98 1285.81 292.66 1290.13 292.39C1299.46 291.8 1309.14 288.62 1316.93 284.03C1324.05 279.823 1329.96 273.667 1334.67 265.56C1336.62 262.2 1338.3 258.477 1339.7 254.39C1341.33 249.677 1342.37 246.007 1342.84 243.38C1343.97 237.007 1344.77 229.793 1345.23 221.74C1345.6 215.22 1345.77 208.497 1345.74 201.57C1345.67 186.57 1345.67 171.7 1345.72 156.96C1345.76 144.707 1345.3 132.923 1344.33 121.61C1343.96 117.197 1343.26 113.097 1342.25 109.31C1341.09 104.99 1339.84 101.04 1338.5 97.46C1336.19 91.2933 1332.81 85.6233 1328.36 80.45Z" stroke="#A1A7C8" stroke-width="2"/>
    <path d="M607.34 62.58L606.88 192.88C606.88 193.262 607.032 193.628 607.302 193.898C607.572 194.168 607.938 194.32 608.32 194.32L663.49 194.52C671.872 194.549 680.178 192.926 687.933 189.744C695.689 186.562 702.741 181.883 708.689 175.974C714.637 170.066 719.363 163.043 722.597 155.308C725.831 147.572 727.511 139.275 727.54 130.89L727.56 125.41C727.589 117.025 725.966 108.717 722.785 100.959C719.604 93.2011 714.927 86.1461 709.02 80.1967C703.113 74.2472 696.093 69.5198 688.36 66.2844C680.627 63.049 672.332 61.3689 663.95 61.34L608.78 61.15C608.4 61.15 608.035 61.3004 607.765 61.5682C607.495 61.8361 607.343 62.1998 607.34 62.58Z" stroke="#A1A7C8" stroke-width="2"/>
    <path d="M211.886 77.8825C211.326 75.0549 210.206 72.3669 208.59 69.972C206.975 67.5771 204.895 65.5222 202.47 63.9246C200.044 62.327 197.321 61.218 194.455 60.661C191.589 60.1039 188.637 60.1097 185.767 60.678C182.896 61.2463 180.165 62.366 177.727 63.9731C175.29 65.5802 173.195 67.6433 171.561 70.0446C169.927 72.4459 168.787 75.1383 168.206 77.9681C167.625 80.798 167.614 83.7099 168.174 86.5375C168.734 89.3651 169.854 92.0531 171.469 94.448C173.085 96.8429 175.165 98.8978 177.59 100.495C180.016 102.093 182.739 103.202 185.605 103.759C188.471 104.316 191.423 104.31 194.293 103.742C197.164 103.174 199.895 102.054 202.333 100.447C204.77 98.8398 206.865 96.7767 208.499 94.3754C210.133 91.9741 211.272 89.2817 211.854 86.4519C212.435 83.622 212.446 80.7101 211.886 77.8825Z" stroke="#E2B89F" stroke-width="2"/>
    <path d="M203.99 115.98C205.91 113.43 204.53 111.03 202.63 109.23C202.263 108.877 201.833 108.773 201.34 108.92C194.07 111.12 187.06 111.65 179.85 109.19C178.457 108.71 177.42 109.127 176.74 110.44C175.887 112.107 175.91 113.833 176.81 115.62C179.097 120.16 182.29 123.963 186.39 127.03C189.47 129.34 190.3 130.7 193.66 127.48C197.627 123.68 201.07 119.847 203.99 115.98Z" stroke="#E2B89F" stroke-width="2"/>
    <path d="M237.79 151.54C236.86 144.27 235.97 136.96 235.02 129.85C234.47 125.72 234.33 122.98 230.2 121.89C223.887 120.237 217.74 118.613 211.76 117.02C211.322 116.905 210.858 116.933 210.437 117.1C210.016 117.267 209.659 117.565 209.42 117.95C207.19 121.51 205.5 125.3 202.32 128.18C198.39 131.75 193.36 134.08 193.3 140.23C193.253 145.397 193.227 150.183 193.22 154.59C193.22 155.043 193.398 155.477 193.717 155.799C194.035 156.121 194.467 156.305 194.92 156.31C207.553 156.45 220.663 156.527 234.25 156.54C235.777 156.54 237.25 156.637 238.67 156.83C238.75 156.841 238.832 156.831 238.907 156.801C238.982 156.771 239.048 156.721 239.097 156.657C239.147 156.593 239.179 156.517 239.19 156.437C239.201 156.357 239.191 156.275 239.16 156.2C238.55 154.69 238 153.15 237.79 151.54Z" stroke="#E2B89F" stroke-width="2"/>
    <path d="M212.06 226.29C212.06 220.453 209.741 214.854 205.613 210.727C201.486 206.599 195.887 204.28 190.05 204.28C184.213 204.28 178.614 206.599 174.486 210.727C170.359 214.854 168.04 220.453 168.04 226.29C168.04 229.18 168.609 232.043 169.715 234.713C170.821 237.383 172.443 239.81 174.486 241.853C176.53 243.897 178.957 245.519 181.627 246.625C184.297 247.731 187.16 248.3 190.05 248.3C192.94 248.3 195.802 247.731 198.473 246.625C201.143 245.519 203.57 243.897 205.613 241.853C207.657 239.81 209.278 237.383 210.385 234.713C211.491 232.043 212.06 229.18 212.06 226.29Z" stroke="#E2B89F" stroke-width="2"/>
    <path d="M199.11 253.31C192.78 255.86 185.38 254.74 178.69 253.12C178.353 253.039 177.999 253.068 177.679 253.203C177.359 253.338 177.09 253.572 176.91 253.87C175.09 256.89 176.46 260.21 178.44 262.75C181.607 266.783 185.433 270.54 189.92 274.02C190.144 274.196 190.426 274.281 190.711 274.259C190.996 274.237 191.263 274.109 191.46 273.9C193.787 271.433 196.23 269.013 198.79 266.64C201.13 264.48 202.87 261.93 204.4 259.15C205.027 258.01 205.06 256.857 204.5 255.69C203.273 253.15 201.477 252.357 199.11 253.31Z" stroke="#E2B89F" stroke-width="2"/>
    <path d="M201.8 300.57L223.23 300.45" stroke="#B77854" stroke-width="2"/>
    <path d="M223.23 300.45L237.82 300.91C238.4 300.923 238.647 300.643 238.56 300.07C237.047 290.003 235.727 280 234.6 270.06C234.34 267.813 233.073 266.42 230.8 265.88C223.967 264.273 217.487 262.6 211.36 260.86C210.967 260.747 210.643 260.853 210.39 261.18C207.68 264.75 205.82 268.68 202.57 271.83C200.297 274.03 197.967 276.22 195.58 278.4C194.173 279.693 193.443 281.07 193.39 282.53C193.203 287.877 193.173 293.077 193.3 298.13C193.34 299.623 194.107 300.387 195.6 300.42L201.8 300.57" stroke="#E2B89F" stroke-width="2"/>
    <path d="M223.23 300.45L201.8 300.57" stroke="#D2BDB2" stroke-width="2"/>
    <path d="M212.19 370.3C212.19 364.425 209.856 358.792 205.702 354.638C201.548 350.484 195.914 348.15 190.04 348.15C184.165 348.15 178.531 350.484 174.377 354.638C170.224 358.792 167.89 364.425 167.89 370.3C167.89 376.175 170.224 381.809 174.377 385.962C178.531 390.116 184.165 392.45 190.04 392.45C195.914 392.45 201.548 390.116 205.702 385.962C209.856 381.809 212.19 376.175 212.19 370.3Z" stroke="#E2B89F" stroke-width="2"/>
    <path d="M178.64 396.49C178.497 396.431 178.338 396.419 178.188 396.455C178.037 396.491 177.901 396.573 177.8 396.69C175.827 398.917 175.383 401.213 176.47 403.58C179 409.07 184.75 413.92 189.69 417.54C189.918 417.707 190.191 417.799 190.471 417.804C190.75 417.81 191.023 417.728 191.25 417.57C196.73 413.777 201.037 409.01 204.17 403.27C205.12 401.53 204.92 400.27 203.79 398.67C202.757 397.21 201.433 396.75 199.82 397.29C192.8 399.63 185.74 399.363 178.64 396.49Z" stroke="#E2B89F" stroke-width="2"/>
    <path d="M234.87 416.6C234.5 413.3 234.64 410.97 230.72 410.1C224.367 408.68 218.083 407.067 211.87 405.26C210.99 405.007 210.303 405.263 209.81 406.03C205.67 412.57 201.38 417.89 194.8 422.54C193.633 423.373 193.09 424.477 193.17 425.85C193.477 431.197 193.493 436.77 193.22 442.57C193.208 442.803 193.242 443.035 193.32 443.255C193.398 443.474 193.518 443.676 193.674 443.849C193.83 444.021 194.019 444.162 194.229 444.261C194.439 444.361 194.667 444.418 194.9 444.43C200.44 444.69 205.977 444.777 211.51 444.69C222.01 444.523 231.01 444.593 238.51 444.9C238.604 444.904 238.698 444.886 238.783 444.846C238.869 444.806 238.943 444.746 239.001 444.671C239.059 444.595 239.098 444.507 239.115 444.413C239.132 444.319 239.127 444.222 239.1 444.13C238.513 442.283 238.06 440.323 237.74 438.25C236.647 431.11 235.69 423.893 234.87 416.6Z" stroke="#E2B89F" stroke-width="2"/>
    <path d="M873.62 462.66C875.28 466.673 878.54 469.04 883.4 469.76C888.08 470.453 892.63 470.27 897.05 469.21C899.48 468.62 900.8 465.75 900.75 463.56C900.536 454.967 900.543 446.163 900.77 437.15C900.81 435.497 900.483 434.007 899.79 432.68C899.655 432.423 899.43 432.227 899.16 432.13C894.146 430.397 890.256 429.57 887.49 429.65C885.15 429.723 882.66 430.25 880.02 431.23C876.38 432.577 873.863 435.277 872.47 439.33C869.896 446.79 870.28 454.567 873.62 462.66Z" stroke="#D2BDB2" stroke-width="2"/>
    <path d="M619.79 445.81C619.758 445.896 619.747 445.988 619.758 446.079C619.769 446.171 619.802 446.258 619.854 446.333C619.906 446.409 619.976 446.471 620.057 446.514C620.138 446.557 620.228 446.579 620.32 446.58L642.83 446.7C642.923 446.701 643.014 446.679 643.096 446.637C643.179 446.595 643.25 446.533 643.303 446.457C643.356 446.381 643.39 446.294 643.402 446.202C643.413 446.11 643.402 446.017 643.37 445.93L632.27 415.87C632.231 415.76 632.159 415.665 632.064 415.597C631.969 415.53 631.855 415.493 631.738 415.492C631.622 415.491 631.508 415.525 631.411 415.591C631.315 415.657 631.241 415.751 631.2 415.86L619.79 445.81Z" stroke="#D2BDB2" stroke-width="2"/>
    <path d="M1193.67 446.18C1193.65 446.232 1193.64 446.287 1193.65 446.342C1193.66 446.397 1193.68 446.449 1193.71 446.494C1193.74 446.539 1193.78 446.576 1193.83 446.602C1193.88 446.627 1193.93 446.64 1193.99 446.64L1217.37 446.6C1217.43 446.601 1217.48 446.588 1217.53 446.562C1217.58 446.536 1217.63 446.498 1217.66 446.451C1217.69 446.405 1217.71 446.351 1217.71 446.295C1217.72 446.239 1217.71 446.182 1217.69 446.13L1205.94 415.71C1205.91 415.647 1205.87 415.594 1205.81 415.556C1205.76 415.518 1205.69 415.498 1205.63 415.498C1205.56 415.498 1205.49 415.518 1205.44 415.556C1205.38 415.594 1205.34 415.647 1205.31 415.71L1193.67 446.18Z" stroke="#D2BDB2" stroke-width="2"/>
    <path d="M931.86 465.35C935.56 471.68 949.13 470.86 954.98 469.25C956.867 468.73 957.89 467.44 958.05 465.38C958.31 462.087 958.373 458.483 958.24 454.57C958.19 453.26 957.1 452.87 956.07 452.48C948.597 449.687 941.433 449.677 934.58 452.45C933.473 452.897 932.627 453.603 932.04 454.57C929.847 458.197 929.787 461.79 931.86 465.35Z" stroke="#D2BDB2" stroke-width="2"/>
    <path d="M1254.96 436.91L1254.92 462.61C1254.92 463.566 1255.1 464.513 1255.47 465.397C1255.83 466.282 1256.36 467.086 1257.04 467.764C1257.71 468.441 1258.51 468.98 1259.4 469.348C1260.28 469.716 1261.22 469.907 1262.18 469.91L1269.21 469.92C1273.31 469.927 1277.24 468.141 1280.14 464.955C1283.05 461.769 1284.68 457.444 1284.69 452.93L1284.71 446.71C1284.71 444.475 1284.32 442.26 1283.55 440.194C1282.77 438.127 1281.64 436.249 1280.21 434.665C1278.77 433.082 1277.07 431.825 1275.2 430.966C1273.33 430.107 1271.32 429.664 1269.29 429.66L1262.26 429.65C1261.3 429.647 1260.36 429.833 1259.47 430.196C1258.59 430.56 1257.78 431.094 1257.11 431.768C1256.43 432.442 1255.89 433.243 1255.52 434.126C1255.15 435.008 1254.96 435.954 1254.96 436.91Z" stroke="#D2BDB2" stroke-width="2"/>
    <path d="M1314.03 436.92L1314.25 462.64C1314.26 463.596 1314.46 464.541 1314.83 465.421C1315.21 466.3 1315.75 467.098 1316.43 467.767C1317.11 468.437 1317.92 468.965 1318.81 469.323C1319.7 469.68 1320.64 469.859 1321.6 469.85L1328.05 469.8C1330.13 469.782 1332.18 469.349 1334.1 468.525C1336.01 467.702 1337.75 466.504 1339.2 465.001C1340.66 463.498 1341.81 461.718 1342.59 459.763C1343.37 457.809 1343.76 455.718 1343.74 453.61L1343.66 445.43C1343.62 441.174 1341.92 437.106 1338.92 434.122C1335.93 431.139 1331.89 429.483 1327.69 429.52L1321.24 429.58C1319.31 429.598 1317.47 430.382 1316.12 431.758C1314.76 433.134 1314.01 434.991 1314.03 436.92Z" stroke="#D2BDB2" stroke-width="2"/>
    <path d="M756 443.83L782.7 444.15C782.858 444.153 783.014 444.124 783.161 444.066C783.307 444.008 783.441 443.922 783.554 443.813C783.668 443.703 783.758 443.572 783.821 443.428C783.884 443.283 783.917 443.128 783.92 442.97V442.76C783.961 439.353 782.6 436.068 780.136 433.628C777.672 431.189 774.307 429.794 770.78 429.75L768.28 429.72C764.753 429.676 761.354 430.987 758.83 433.365C756.306 435.743 754.863 438.993 754.82 442.4V442.61C754.817 442.768 754.846 442.924 754.904 443.071C754.961 443.217 755.048 443.351 755.157 443.464C755.267 443.578 755.398 443.668 755.542 443.731C755.687 443.794 755.842 443.827 756 443.83Z" stroke="#D2BDB2" stroke-width="2"/>
    <path d="M1099.24 443.93L1127.8 444.13C1127.87 444.13 1127.93 444.104 1127.98 444.057C1128.02 444.01 1128.05 443.946 1128.05 443.88L1128.06 442.75C1128.07 441.035 1127.75 439.334 1127.1 437.745C1126.46 436.156 1125.51 434.71 1124.3 433.489C1123.1 432.268 1121.67 431.296 1120.09 430.628C1118.52 429.961 1116.82 429.612 1115.11 429.6L1112.13 429.58C1110.42 429.568 1108.72 429.894 1107.13 430.54C1105.55 431.185 1104.1 432.137 1102.88 433.342C1101.66 434.546 1100.69 435.979 1100.03 437.559C1099.36 439.139 1099.01 440.835 1099 442.55L1098.99 443.68C1098.99 443.746 1099.02 443.81 1099.06 443.857C1099.11 443.904 1099.17 443.93 1099.24 443.93Z" stroke="#D2BDB2" stroke-width="2"/>
    <path d="M1376.18 55.8C1385.98 71 1392.37 88.07 1395.67 105.55C1398.46 120.323 1399.87 135.86 1399.88 152.16C1399.89 166.853 1399.91 181.96 1399.93 197.48C1399.94 201.973 1399.84 206.477 1399.64 210.99C1399.4 216.64 1399.29 222.41 1398.74 228.17C1397.38 242.437 1394.72 255.803 1390.76 268.27C1388.92 274.07 1386.62 279.857 1383.87 285.63C1378.69 296.497 1372.06 306.08 1363.97 314.38C1344.24 334.63 1317.67 344.72 1289.91 347.27C1285.16 347.703 1279.19 347.92 1272 347.92C1238.38 347.933 1204.89 347.907 1171.52 347.84C1171.18 347.837 1170.85 347.699 1170.61 347.456C1170.37 347.212 1170.23 346.883 1170.23 346.54L1170.22 7.75C1170.22 7.62669 1170.25 7.50478 1170.3 7.39292C1170.35 7.28107 1170.43 7.18201 1170.52 7.10279C1170.61 7.02357 1170.73 6.96612 1170.84 6.93453C1170.96 6.90294 1171.09 6.89798 1171.21 6.92C1172.36 7.12666 1173.5 7.23 1174.64 7.23C1209.91 7.21666 1244.75 7.24 1279.18 7.3C1317.2 7.37 1354.98 22.92 1376.18 55.8ZM1328.36 80.45C1316.53 66.69 1298.55 61.61 1280.26 61.48C1262.25 61.3533 1244.19 61.3733 1226.08 61.54C1225.74 61.5426 1225.41 61.6808 1225.17 61.9243C1224.93 62.1678 1224.79 62.4969 1224.79 62.84C1224.78 139.053 1224.77 213.23 1224.78 285.37C1224.78 287.75 1224.86 290.1 1225.02 292.42C1225.03 292.601 1225.11 292.771 1225.25 292.893C1225.38 293.016 1225.56 293.083 1225.74 293.08C1243.21 293.033 1260.34 293 1277.13 292.98C1281.42 292.98 1285.81 292.66 1290.13 292.39C1299.46 291.8 1309.14 288.62 1316.93 284.03C1324.05 279.823 1329.96 273.667 1334.67 265.56C1336.62 262.2 1338.3 258.477 1339.7 254.39C1341.33 249.677 1342.37 246.007 1342.84 243.38C1343.97 237.007 1344.77 229.793 1345.23 221.74C1345.6 215.22 1345.77 208.497 1345.74 201.57C1345.67 186.57 1345.67 171.7 1345.72 156.96C1345.76 144.707 1345.3 132.923 1344.33 121.61C1343.96 117.197 1343.26 113.097 1342.25 109.31C1341.09 104.99 1339.84 101.04 1338.5 97.46C1336.19 91.2933 1332.81 85.6233 1328.36 80.45Z" fill="#455093"/>
    <path d="M607.28 249.41C607.093 249.863 607 250.34 607 250.84C607.207 278.753 607.227 307.363 607.06 336.67C607.04 339.983 606.973 343.34 606.86 346.74C606.854 346.953 606.803 347.163 606.709 347.355C606.616 347.547 606.483 347.717 606.318 347.854C606.154 347.991 605.962 348.091 605.756 348.149C605.549 348.207 605.332 348.221 605.12 348.19C603.24 347.903 601.267 347.763 599.2 347.77C586.78 347.837 573.56 347.903 559.54 347.97C557.653 347.983 555.76 347.903 553.86 347.73C553.534 347.699 553.23 347.553 553.005 347.318C552.779 347.083 552.646 346.774 552.63 346.45C552.23 338.21 552.48 330.2 552.48 322.04C552.393 216.453 552.387 111.833 552.46 8.17998C552.46 7.57331 552.763 7.26998 553.37 7.26998C588.197 7.21664 623.56 7.22998 659.46 7.30998C675.413 7.34998 690.93 9.81998 706.01 14.72C709.943 15.9933 713.753 17.5033 717.44 19.25C722.57 21.69 728.06 23.78 732.6 26.97C737.573 30.4566 742.483 34.21 747.33 38.23C752.99 42.93 757.23 49.46 761.9 55.36C764.873 59.12 767.133 62.9633 768.68 66.89C770.667 71.9366 772.75 77.08 774.93 82.32C776.99 87.2666 778.24 91.8966 778.68 96.21C779.96 108.67 782.16 121.52 781.8 133.76C781.13 157.04 775.75 181.6 762.31 200.98C753.177 214.147 741.573 224.55 727.5 232.19C727.35 232.27 727.219 232.38 727.112 232.512C727.006 232.645 726.928 232.797 726.882 232.961C726.837 233.124 726.824 233.295 726.846 233.463C726.868 233.632 726.924 233.794 727.01 233.94C749.07 270.987 771.04 307.857 792.92 344.55C793.533 345.577 793.84 346.643 793.84 347.75C793.84 348.163 793.633 348.347 793.22 348.3C791.72 348.13 790.18 347.81 788.67 347.81C771.757 347.79 754.837 347.793 737.91 347.82C737.397 347.82 737.007 347.6 736.74 347.16L677.93 248.48C677.782 248.229 677.563 248.027 677.299 247.901C677.036 247.774 676.74 247.729 676.45 247.77C670.243 248.65 664 249.107 657.72 249.14C639.447 249.24 622.78 249.23 607.72 249.11C607.507 249.11 607.36 249.21 607.28 249.41ZM607.34 62.58L606.88 192.88C606.88 193.262 607.032 193.628 607.302 193.898C607.572 194.168 607.938 194.32 608.32 194.32L663.49 194.52C671.872 194.549 680.178 192.926 687.933 189.744C695.689 186.562 702.742 181.883 708.689 175.974C714.637 170.066 719.363 163.043 722.597 155.308C725.832 147.572 727.511 139.275 727.54 130.89L727.56 125.41C727.589 117.025 725.967 108.717 722.786 100.959C719.604 93.2011 714.927 86.1461 709.02 80.1966C703.114 74.2472 696.093 69.5198 688.36 66.2843C680.627 63.0489 672.332 61.3688 663.95 61.34L608.78 61.15C608.4 61.15 608.035 61.3003 607.765 61.5682C607.495 61.8361 607.343 62.1998 607.34 62.58Z" fill="#455093"/>
    <path d="M888.8 99.05C886.84 105.62 884.48 112.05 884.03 119.07C883.53 126.82 882.51 134.1 882.5 141.82C882.413 206.953 882.417 274.037 882.51 343.07C882.51 344.857 882.28 346.497 881.82 347.99C881.68 348.43 881.393 348.577 880.96 348.43C880.14 348.16 879.27 347.8 878.4 347.8C862.013 347.773 845.517 347.78 828.91 347.82C828.602 347.82 828.307 347.698 828.09 347.48C827.872 347.263 827.75 346.968 827.75 346.66C827.743 281.413 827.747 216.95 827.76 153.27C827.76 146.49 828.26 139.35 828.37 132.42C828.417 129.627 828.663 126.83 829.11 124.03C830.4 115.91 831.06 107.77 833.17 99.73C834.99 92.77 836.51 86.37 839.23 79.67C840.423 76.73 841.667 73.8666 842.96 71.08C856.7 41.54 879.303 22.0533 910.77 12.62C925.02 8.34997 938.89 7.14997 954.82 7.19997C979.987 7.28664 1005.02 7.28664 1029.93 7.19997C1030.03 7.19998 1030.13 7.21946 1030.22 7.25728C1030.31 7.2951 1030.39 7.35051 1030.46 7.42029C1030.53 7.49006 1030.59 7.57282 1030.63 7.66375C1030.66 7.75468 1030.68 7.85197 1030.68 7.94997L1030.58 60.84C1030.58 60.9294 1030.54 61.0156 1030.48 61.0806C1030.42 61.1457 1030.33 61.1849 1030.24 61.19C1028.57 61.2833 1026.98 61.33 1025.45 61.33C991.657 61.3966 964.75 61.4766 944.73 61.57C940.117 61.59 934.953 62.1966 929.24 63.39C916.813 65.99 906.523 72.06 898.37 81.6C897.277 82.8733 895.48 85.6566 892.98 89.95C890.993 93.3566 889.6 96.39 888.8 99.05Z" fill="#455093"/>
    <path d="M1115.18 7.27002H1062.1C1061.63 7.27002 1061.24 7.65505 1061.24 8.13002V346.95C1061.24 347.425 1061.63 347.81 1062.1 347.81H1115.18C1115.66 347.81 1116.04 347.425 1116.04 346.95V8.13002C1116.04 7.65505 1115.66 7.27002 1115.18 7.27002Z" fill="#455093"/>
    <path d="M207.9 104.38C207.647 104.566 207.469 104.838 207.399 105.144C207.329 105.451 207.372 105.772 207.52 106.05C209.07 108.99 210.94 110.46 214.32 111.45C220.553 113.277 226.697 114.837 232.75 116.13C236.73 116.977 239.093 119.117 239.84 122.55C240.587 125.983 241.167 129.45 241.58 132.95C242.313 139.117 243.06 145.34 243.82 151.62C244.127 154.167 244.553 156.757 245.1 159.39C245.52 161.417 244.697 162.433 242.63 162.44C224.63 162.51 206.37 162.99 188.46 162.86C172.893 162.747 157.177 162.66 141.31 162.6C139.403 162.593 137.563 162.34 135.79 161.84C135.523 161.767 135.285 161.614 135.107 161.401C134.93 161.188 134.823 160.926 134.8 160.65C134.66 159.11 134.707 157.493 134.94 155.8C136.893 141.287 138.54 130.39 139.88 123.11C141.01 117.03 146 116.28 152.59 114.7C156.503 113.767 160.493 112.8 164.56 111.8C167.987 110.953 170.513 109.083 172.14 106.19C172.323 105.868 172.386 105.492 172.318 105.127C172.251 104.763 172.056 104.435 171.77 104.2C169.563 102.407 167.463 99.9867 165.47 96.94C164.03 94.74 162.957 92.0433 162.25 88.85C160.403 80.5367 162.107 72.62 167.36 65.1C173.24 56.68 184.62 53.27 194.21 54.55C205.13 56.02 212.45 62.42 216.75 71.92C218.337 75.4333 219.03 79.5333 218.83 84.22C218.52 91.52 214.04 99.83 207.9 104.38ZM211.886 77.8825C211.326 75.0549 210.206 72.3669 208.59 69.972C206.975 67.5771 204.895 65.5222 202.47 63.9246C200.044 62.327 197.321 61.218 194.455 60.661C191.589 60.1039 188.637 60.1097 185.767 60.678C182.896 61.2463 180.165 62.366 177.727 63.9731C175.29 65.5802 173.195 67.6433 171.561 70.0446C169.927 72.4459 168.787 75.1383 168.206 77.9682C167.625 80.798 167.614 83.7099 168.174 86.5375C168.734 89.3651 169.854 92.0531 171.469 94.448C173.085 96.8429 175.165 98.8979 177.59 100.495C180.016 102.093 182.739 103.202 185.605 103.759C188.471 104.316 191.423 104.31 194.293 103.742C197.163 103.174 199.895 102.054 202.333 100.447C204.77 98.8398 206.865 96.7767 208.499 94.3754C210.133 91.9742 211.272 89.2817 211.854 86.4519C212.435 83.622 212.446 80.7101 211.886 77.8825ZM203.99 115.98C205.91 113.43 204.53 111.03 202.63 109.23C202.263 108.877 201.833 108.773 201.34 108.92C194.07 111.12 187.06 111.65 179.85 109.19C178.457 108.71 177.42 109.127 176.74 110.44C175.887 112.107 175.91 113.833 176.81 115.62C179.097 120.16 182.29 123.963 186.39 127.03C189.47 129.34 190.3 130.7 193.66 127.48C197.627 123.68 201.07 119.847 203.99 115.98ZM237.79 151.54C236.86 144.27 235.97 136.96 235.02 129.85C234.47 125.72 234.33 122.98 230.2 121.89C223.887 120.237 217.74 118.613 211.76 117.02C211.322 116.905 210.858 116.933 210.437 117.1C210.016 117.267 209.659 117.565 209.42 117.95C207.19 121.51 205.5 125.3 202.32 128.18C198.39 131.75 193.36 134.08 193.3 140.23C193.253 145.397 193.227 150.183 193.22 154.59C193.22 155.043 193.398 155.477 193.717 155.799C194.035 156.121 194.467 156.305 194.92 156.31C207.553 156.45 220.663 156.527 234.25 156.54C235.777 156.54 237.25 156.637 238.67 156.83C238.75 156.841 238.832 156.831 238.907 156.801C238.982 156.771 239.048 156.721 239.097 156.657C239.147 156.593 239.179 156.517 239.19 156.437C239.201 156.357 239.191 156.275 239.16 156.2C238.55 154.69 238 153.15 237.79 151.54Z" fill="#C77341"/>
    <path d="M49.87 111.33C50.5567 111.05 51.23 110.57 51.89 109.89C66.55 94.9367 81.8133 79.8134 97.68 64.52C98.8733 63.3667 100.39 63.07 102.23 63.63C102.65 63.7567 102.95 64.0267 103.13 64.44C103.743 65.84 103.743 66.8634 103.13 67.51C95.57 75.4634 88.44 82.7134 81.74 89.26C71.83 98.94 62.39 108.97 52.11 118.63C51.4967 119.203 50.7867 119.57 49.98 119.73C49.64 119.797 49.3233 119.737 49.03 119.55C47.5833 118.657 46.2833 117.633 45.13 116.48C40.7633 112.12 36.1167 107.55 31.19 102.77C29.9033 101.523 29.3433 100.09 29.51 98.47C29.5466 98.1224 29.6604 97.7874 29.8429 97.4894C30.0253 97.1915 30.2719 96.9383 30.5645 96.7484C30.857 96.5584 31.1881 96.4367 31.5334 96.392C31.8787 96.3472 32.2295 96.3808 32.56 96.49C34.2867 97.0634 35.8133 98.02 37.14 99.36C40.8067 103.087 44.5767 106.977 48.45 111.03C48.6292 111.219 48.8612 111.349 49.1149 111.402C49.3686 111.456 49.632 111.431 49.87 111.33Z" fill="#C77341"/>
    <path d="M13.58 106.51C10.54 126.38 26.19 145.72 46.31 146.76C55.09 147.21 63.3 146.21 70.22 140.82C77.34 135.29 83.39 128.01 85.01 119.38C85.5833 116.307 86.05 113.273 86.41 110.28C86.6167 108.58 87.5667 107.863 89.26 108.13L90.22 108.28C91.68 108.507 92.3933 109.357 92.36 110.83C92.04 125.857 85.93 137.577 74.03 145.99C64.1567 152.963 52.9567 155.21 40.43 152.73C33.31 151.323 26.58 147.697 20.24 141.85C9.34 131.8 6.41 118.96 7.99 104.6C9.59 89.93 18.42 78.74 31.81 72.48C37.5 69.82 44.62 69.11 50.8 68.93C52.2533 68.89 52.8967 69.5934 52.73 71.04L52.59 72.21C52.4233 73.6834 51.6 74.4467 50.12 74.5C40.51 74.84 33.66 77.71 26.6 83.37C19.27 89.23 15.06 96.87 13.58 106.51Z" fill="#C77341"/>
    <path d="M382.564 89.3554L285.645 89.5246C283.932 89.5275 282.547 90.9179 282.55 92.63L282.55 92.71C282.553 94.422 283.943 95.8075 285.656 95.8045L382.575 95.6354C384.287 95.6324 385.673 94.2421 385.67 92.53L385.67 92.45C385.667 90.7379 384.276 89.3524 382.564 89.3554Z" fill="#C77341"/>
    <path d="M411.895 120.71L285.976 120.49C284.247 120.487 282.843 121.886 282.84 123.615L282.84 123.855C282.837 125.583 284.236 126.987 285.964 126.99L411.884 127.21C413.613 127.213 415.017 125.814 415.02 124.085L415.02 123.845C415.023 122.117 413.624 120.713 411.895 120.71Z" fill="#C77341"/>
    <path d="M963.07 204.74C978.252 204.74 990.56 192.432 990.56 177.25C990.56 162.068 978.252 149.76 963.07 149.76C947.888 149.76 935.58 162.068 935.58 177.25C935.58 192.432 947.888 204.74 963.07 204.74Z" fill="#C77341"/>
    <path d="M200.73 306.9C195.577 306.947 190.427 306.94 185.28 306.88C168.58 306.7 152.217 306.667 136.19 306.78C135.917 306.782 135.653 306.684 135.448 306.505C135.243 306.326 135.112 306.079 135.08 305.81C134.933 304.59 134.91 303.397 135.01 302.23C135.957 291.457 137.453 280.277 139.5 268.69C140.29 264.27 141.79 262.04 146.03 260.75C151.843 258.983 157.637 257.437 163.41 256.11C167.24 255.23 170.94 253.66 172.41 249.71C172.483 249.514 172.493 249.301 172.44 249.1C172.386 248.899 172.27 248.721 172.11 248.59C162.79 241 159.23 228.52 163.05 217.26C169.79 197.37 193.77 192.65 209.29 205.31C212.9 208.26 215.37 212.98 217.16 217.27C219.32 222.423 219.507 227.923 217.72 233.77C215.8 240.03 213.29 243.95 208.67 247.87C208.281 248.205 208.01 248.656 207.898 249.157C207.787 249.658 207.84 250.182 208.05 250.65C209.41 253.68 212.41 255.18 215.51 255.98C222.45 257.767 229.05 259.477 235.31 261.11C238.82 262.03 240.16 265.87 240.51 269.45C241.683 281.617 243.197 293.163 245.05 304.09C245.203 305.017 244.823 305.717 243.91 306.19C243.21 306.543 242.397 306.69 241.47 306.63C235.263 306.21 228.52 306.223 221.24 306.67C214.48 307.09 207.72 306.85 200.73 306.9ZM212.06 226.29C212.06 220.453 209.741 214.854 205.613 210.727C201.486 206.599 195.887 204.28 190.05 204.28C184.213 204.28 178.614 206.599 174.487 210.727C170.359 214.854 168.04 220.453 168.04 226.29C168.04 229.18 168.609 232.042 169.715 234.713C170.822 237.383 172.443 239.81 174.487 241.853C176.53 243.897 178.957 245.518 181.627 246.625C184.298 247.731 187.16 248.3 190.05 248.3C192.94 248.3 195.803 247.731 198.473 246.625C201.143 245.518 203.57 243.897 205.613 241.853C207.657 239.81 209.279 237.383 210.385 234.713C211.491 232.042 212.06 229.18 212.06 226.29ZM199.11 253.31C192.78 255.86 185.38 254.74 178.69 253.12C178.353 253.039 177.999 253.068 177.679 253.203C177.359 253.338 177.09 253.572 176.91 253.87C175.09 256.89 176.46 260.21 178.44 262.75C181.607 266.783 185.433 270.54 189.92 274.02C190.144 274.196 190.426 274.281 190.711 274.259C190.996 274.237 191.263 274.109 191.46 273.9C193.787 271.433 196.23 269.013 198.79 266.64C201.13 264.48 202.87 261.93 204.4 259.15C205.027 258.01 205.06 256.857 204.5 255.69C203.273 253.15 201.477 252.357 199.11 253.31ZM201.8 300.57L223.23 300.45L237.82 300.91C238.4 300.923 238.647 300.643 238.56 300.07C237.047 290.003 235.727 280 234.6 270.06C234.34 267.813 233.073 266.42 230.8 265.88C223.967 264.273 217.487 262.6 211.36 260.86C210.967 260.747 210.643 260.853 210.39 261.18C207.68 264.75 205.82 268.68 202.57 271.83C200.297 274.03 197.967 276.22 195.58 278.4C194.173 279.693 193.443 281.07 193.39 282.53C193.203 287.877 193.173 293.077 193.3 298.13C193.34 299.623 194.107 300.387 195.6 300.42L201.8 300.57Z" fill="#C77341"/>
    <path d="M49.44 255.71C49.6442 255.726 49.8491 255.697 50.0407 255.626C50.2323 255.555 50.4061 255.444 50.55 255.3L96.82 209.02C98.2533 207.58 99.9533 207.123 101.92 207.65C102.353 207.763 102.75 207.947 103.11 208.2C104.73 209.353 104.78 210.573 103.26 211.86C101.32 213.493 99.5333 215.137 97.9 216.79C82.0466 232.87 66.8233 248.097 52.23 262.47C51.5494 263.138 50.6337 263.512 49.68 263.512C48.7262 263.512 47.8106 263.138 47.13 262.47C41.6366 257.09 36.01 251.397 30.25 245.39C29.02 244.11 28.58 241.25 30.94 240.88C33.19 240.52 35.73 242.16 37.25 243.76C40.91 247.613 44.59 251.42 48.29 255.18C48.6033 255.493 48.9866 255.67 49.44 255.71Z" fill="#C77341"/>
    <path d="M74.9899 281.44C82.1633 274.133 85.9566 265.43 86.3699 255.33C86.4366 253.717 87.2666 252.78 88.8599 252.52C89.3599 252.44 89.8799 252.46 90.4199 252.58C90.943 252.696 91.4091 252.991 91.7377 253.412C92.0663 253.834 92.2369 254.357 92.2199 254.89C91.7333 269.803 85.7799 281.44 74.3599 289.8C71.5933 291.827 67.3266 293.833 61.5599 295.82C53.2099 298.69 42.4999 298.26 34.7699 294.88C26.6966 291.347 20.3433 286.697 15.7099 280.93C8.83995 272.38 6.29995 259.32 7.84995 248.35C9.56995 236.23 17.3899 225.3 27.8699 218.97C34.4566 214.99 42.1033 213.113 50.8099 213.34C52.1766 213.38 52.8333 214.08 52.7799 215.44L52.7699 215.93C52.7099 217.643 51.8233 218.513 50.1099 218.54C38.1499 218.75 29.0299 223.31 21.2799 232.42C12.9799 242.17 11.3299 254.11 14.7399 266.51C15.1199 267.883 15.6633 269.243 16.3699 270.59C21.4199 280.16 29.1199 287.23 39.8099 290.07C49.4566 292.643 58.8733 291.483 68.0599 286.59C70.6733 285.197 72.9833 283.48 74.9899 281.44Z" fill="#C77341"/>
    <path d="M382.05 233.21H286.25C284.356 233.21 282.82 234.746 282.82 236.64V236.78C282.82 238.674 284.356 240.21 286.25 240.21H382.05C383.944 240.21 385.48 238.674 385.48 236.78V236.64C385.48 234.746 383.944 233.21 382.05 233.21Z" fill="#C77341"/>
    <path d="M414.79 269.73C414.79 270.104 414.641 270.463 414.377 270.727C414.113 270.991 413.754 271.14 413.38 271.14H287.43C286.194 271.14 285.009 270.898 284.135 270.466C283.261 270.035 282.77 269.45 282.77 268.84V267.22C282.77 266.61 283.261 266.025 284.135 265.594C285.009 265.162 286.194 264.92 287.43 264.92H413.38C413.754 264.92 414.113 265.069 414.377 265.333C414.641 265.597 414.79 265.956 414.79 266.33V269.73Z" fill="#C77341"/>
    <path d="M164.07 358.71C165.38 355.88 168.03 351.86 170.67 349.65C180.817 341.17 192.02 339.943 204.28 345.97C209.15 348.36 212.96 353.06 215.69 357.55C218.177 361.637 219.203 366.677 218.77 372.67C218.18 380.75 214.22 386.03 209 391.99C206.45 394.9 209.6 398.09 212.5 398.96C219.107 400.953 225.827 402.76 232.66 404.38C237.607 405.553 240.307 408.627 240.76 413.6C241.927 426.26 243.373 437.767 245.1 448.12C245.38 449.773 244.707 450.647 243.08 450.74C241.26 450.84 239.48 450.52 237.65 450.55C220.87 450.77 204.3 451.12 187.78 450.97C171.573 450.837 155.77 450.8 140.37 450.86C139.117 450.867 137.74 450.69 136.24 450.33C135.791 450.221 135.396 449.954 135.127 449.578C134.859 449.201 134.736 448.74 134.78 448.28C135.92 436.433 137.527 424.457 139.6 412.35C140.57 406.68 144.24 404.86 149.56 403.76C153.907 402.867 158.667 401.587 163.84 399.92C167.54 398.73 169.71 398.22 171.7 395.68C172.07 395.214 172.252 394.626 172.211 394.032C172.17 393.439 171.91 392.882 171.48 392.47C161.93 383.31 158.53 370.73 164.07 358.71ZM212.19 370.3C212.19 364.425 209.856 358.792 205.702 354.638C201.549 350.484 195.915 348.15 190.04 348.15C184.166 348.15 178.532 350.484 174.378 354.638C170.224 358.792 167.89 364.425 167.89 370.3C167.89 376.175 170.224 381.808 174.378 385.962C178.532 390.116 184.166 392.45 190.04 392.45C195.915 392.45 201.549 390.116 205.702 385.962C209.856 381.808 212.19 376.175 212.19 370.3ZM178.64 396.49C178.497 396.431 178.339 396.419 178.188 396.455C178.037 396.491 177.902 396.573 177.8 396.69C175.827 398.917 175.383 401.213 176.47 403.58C179 409.07 184.75 413.92 189.69 417.54C189.918 417.707 190.191 417.799 190.471 417.804C190.75 417.81 191.023 417.728 191.25 417.57C196.73 413.777 201.037 409.01 204.17 403.27C205.12 401.53 204.92 400.27 203.79 398.67C202.757 397.21 201.433 396.75 199.82 397.29C192.8 399.63 185.74 399.363 178.64 396.49ZM234.87 416.6C234.5 413.3 234.64 410.97 230.72 410.1C224.367 408.68 218.083 407.067 211.87 405.26C210.99 405.007 210.303 405.263 209.81 406.03C205.67 412.57 201.38 417.89 194.8 422.54C193.633 423.373 193.09 424.477 193.17 425.85C193.477 431.197 193.493 436.77 193.22 442.57C193.208 442.803 193.242 443.035 193.32 443.255C193.398 443.474 193.518 443.676 193.674 443.849C193.83 444.021 194.019 444.162 194.229 444.261C194.44 444.361 194.668 444.418 194.9 444.43C200.44 444.69 205.977 444.777 211.51 444.69C222.01 444.523 231.01 444.593 238.51 444.9C238.604 444.904 238.698 444.886 238.783 444.846C238.869 444.806 238.943 444.746 239.001 444.671C239.059 444.595 239.098 444.507 239.115 444.413C239.132 444.319 239.127 444.222 239.1 444.13C238.513 442.283 238.06 440.323 237.74 438.25C236.647 431.11 235.69 423.893 234.87 416.6Z" fill="#C77341"/>
    <path d="M83.82 366.12C88.6 361.41 93.61 356.37 98.85 351.9C102.37 348.9 105.25 353.72 102.71 356.1C100.79 357.89 99.21 359.93 97.31 361.75C89.3167 369.437 81.4167 377.327 73.61 385.42C68.75 390.45 63.64 394.88 58.98 400.01C56.92 402.27 54.41 404.67 51.45 407.21C49.51 408.89 47.96 407.75 46.39 406.08C41.2967 400.667 36.0433 395.37 30.63 390.19C29.19 388.81 28.96 387.257 29.94 385.53C30.3333 384.83 31.01 384.363 31.97 384.13C32.3272 384.041 32.7006 384.046 33.0543 384.142C33.408 384.238 33.7302 384.423 33.99 384.68L48.75 399.37C48.9459 399.567 49.2128 399.678 49.4921 399.678C49.7714 399.678 50.0404 399.567 50.24 399.37C61.32 388.33 72.5133 377.247 83.82 366.12Z" fill="#C77341"/>
    <path d="M21.04 430.8C17.7866 428.12 14.7533 424.173 11.94 418.96C9.92663 415.22 8.59663 410.973 7.94996 406.22C5.83663 390.627 10.16 377.803 20.92 367.75C24.5866 364.323 28.53 361.827 32.75 360.26C37.73 358.413 42.78 357.377 47.9 357.15C50.06 357.06 53.87 357.56 53.27 360.53C53.1902 360.919 52.9953 361.276 52.7101 361.554C52.425 361.832 52.0627 362.019 51.67 362.09C48.9966 362.577 46.2566 363.06 43.45 363.54C33.8966 365.16 25.9666 370.237 19.66 378.77C12.82 388.02 11.24 400.66 15.12 411.71C16.1933 414.757 18.1766 417.99 21.07 421.41C25.47 426.62 30.6 431.45 37.15 433.46C48.3 436.87 61.85 436.15 70.99 428.7C74.9566 425.467 78.2333 421.92 80.82 418.06C84.51 412.55 85.63 405.76 86.3 399.08C86.48 397.26 87.4833 396.31 89.31 396.23L89.89 396.2C91.5366 396.133 92.3433 396.92 92.31 398.56C92.03 411.34 87.72 421.743 79.38 429.77C74.3133 434.657 68.14 438.14 60.86 440.22C46.5 444.33 32.47 440.22 21.04 430.8Z" fill="#C77341"/>
    <path d="M382.805 377.775L285.365 377.605C284.023 377.603 282.934 378.689 282.931 380.031L282.929 381.271C282.927 382.613 284.013 383.703 285.355 383.705L382.795 383.875C384.137 383.877 385.227 382.791 385.229 381.449L385.231 380.209C385.233 378.867 384.147 377.777 382.805 377.775Z" fill="#C77341"/>
    <path d="M900.85 425L900.69 402.48C900.683 401.76 901.04 401.38 901.76 401.34L906.2 401.12C907.127 401.073 907.657 401.51 907.79 402.43C908.05 404.283 908.187 406.16 908.2 408.06C908.327 427.173 908.397 445.3 908.41 462.44C908.42 465.54 907.94 470.47 904.99 472.37C902.43 474.01 899.46 475.65 896.45 476.21C885.12 478.3 871.34 477.01 865.97 464.91C861.98 455.92 861.82 443.27 865.92 434.24C870.57 424.04 883.41 421.12 893.28 423.72C895.627 424.347 897.897 424.97 900.09 425.59C900.603 425.737 900.857 425.54 900.85 425ZM873.62 462.66C875.28 466.673 878.54 469.04 883.4 469.76C888.08 470.453 892.63 470.27 897.05 469.21C899.48 468.62 900.8 465.75 900.75 463.56C900.537 454.967 900.543 446.163 900.77 437.15C900.81 435.497 900.483 434.007 899.79 432.68C899.655 432.423 899.43 432.227 899.16 432.13C894.147 430.397 890.257 429.57 887.49 429.65C885.15 429.723 882.66 430.25 880.02 431.23C876.38 432.577 873.863 435.277 872.47 439.33C869.897 446.79 870.28 454.567 873.62 462.66Z" fill="#A67D66"/>
    <path d="M618.02 453.79C617.273 453.77 616.753 454.1 616.46 454.78C614.253 459.953 612.273 465.103 610.52 470.23C610.04 471.643 609.403 473.05 608.61 474.45C608.352 474.906 607.97 475.28 607.509 475.529C607.047 475.778 606.524 475.893 606 475.86L601.95 475.59C600.783 475.51 600.417 474.927 600.85 473.84C609.39 452.427 618.09 430.663 626.95 408.55C628.17 405.49 631.02 405.27 633.77 405.9C634.903 406.153 635.71 406.88 636.19 408.08C642.397 423.507 648.807 439.637 655.42 456.47C657.833 462.617 660.203 468.27 662.53 473.43C663.23 474.977 662.73 475.753 661.03 475.76L657.56 475.77C656.82 475.77 656.098 475.546 655.488 475.129C654.878 474.711 654.408 474.119 654.14 473.43L647.19 455.44C646.98 454.897 646.605 454.433 646.119 454.114C645.633 453.795 645.06 453.636 644.48 453.66C635.653 453.993 626.833 454.037 618.02 453.79ZM619.79 445.81C619.758 445.896 619.747 445.988 619.758 446.079C619.769 446.171 619.802 446.258 619.854 446.333C619.906 446.409 619.976 446.471 620.057 446.514C620.138 446.557 620.228 446.579 620.32 446.58L642.83 446.7C642.923 446.701 643.014 446.679 643.096 446.637C643.179 446.595 643.25 446.533 643.303 446.457C643.356 446.381 643.39 446.294 643.402 446.202C643.413 446.11 643.402 446.017 643.37 445.93L632.27 415.87C632.231 415.76 632.159 415.665 632.064 415.597C631.969 415.53 631.855 415.493 631.738 415.492C631.622 415.491 631.508 415.525 631.411 415.591C631.315 415.657 631.241 415.751 631.2 415.86L619.79 445.81Z" fill="#A67D66"/>
    <path d="M1228.08 473.44L1221.11 455.2C1220.95 454.778 1220.66 454.416 1220.29 454.162C1219.91 453.908 1219.47 453.775 1219.02 453.78L1192.37 454.02C1191.26 454.033 1190.5 454.557 1190.09 455.59L1183.08 473.42C1182.79 474.164 1182.28 474.804 1181.62 475.257C1180.97 475.71 1180.19 475.955 1179.39 475.96L1176.27 475.99C1174.85 475.997 1174.4 475.34 1174.92 474.02C1176.4 470.28 1177.81 466.72 1179.15 463.34C1185.74 446.72 1192.32 430.097 1198.89 413.47C1199.74 411.317 1200.7 409.14 1201.79 406.94C1202.12 406.26 1202.66 405.88 1203.41 405.8C1205 405.64 1206.54 405.727 1208.04 406.06C1209.77 406.45 1210.08 407.9 1210.64 409.38C1213.57 417.12 1216.64 424.76 1219.86 432.3C1224.93 444.19 1229.1 455.76 1233.87 467.42C1234.74 469.56 1235.53 471.707 1236.23 473.86C1236.74 475.42 1236.17 476.15 1234.53 476.05L1231.38 475.86C1230.65 475.818 1229.96 475.568 1229.37 475.138C1228.78 474.709 1228.34 474.119 1228.08 473.44ZM1193.67 446.18C1193.65 446.232 1193.64 446.287 1193.65 446.342C1193.66 446.397 1193.68 446.449 1193.71 446.494C1193.74 446.539 1193.78 446.576 1193.83 446.602C1193.88 446.627 1193.93 446.64 1193.99 446.64L1217.37 446.6C1217.43 446.601 1217.48 446.588 1217.53 446.562C1217.58 446.536 1217.63 446.498 1217.66 446.451C1217.69 446.405 1217.71 446.351 1217.71 446.295C1217.72 446.239 1217.71 446.182 1217.69 446.13L1205.94 415.71C1205.91 415.647 1205.87 415.594 1205.81 415.556C1205.76 415.518 1205.69 415.498 1205.62 415.498C1205.56 415.498 1205.49 415.518 1205.44 415.556C1205.38 415.594 1205.34 415.647 1205.31 415.71L1193.67 446.18Z" fill="#A67D66"/>
    <path d="M412.54 408.96H285.34C283.954 408.96 282.83 410.084 282.83 411.47V412.65C282.83 414.036 283.954 415.16 285.34 415.16H412.54C413.926 415.16 415.05 414.036 415.05 412.65V411.47C415.05 410.084 413.926 408.96 412.54 408.96Z" fill="#C77341"/>
    <path d="M684.31 422.89C684.323 423.207 684.453 423.509 684.673 423.739C684.894 423.969 685.191 424.111 685.51 424.14C688.817 424.433 692.187 424.463 695.62 424.23C697.073 424.13 697.803 424.81 697.81 426.27L697.83 428.62C697.837 429.767 697.27 430.317 696.13 430.27L684.98 429.85C684.863 429.844 684.746 429.863 684.637 429.905C684.527 429.948 684.428 430.012 684.345 430.095C684.262 430.178 684.198 430.277 684.155 430.387C684.113 430.496 684.094 430.613 684.1 430.73C684.467 439.843 684.607 450.13 684.52 461.59C684.5 464.24 685.31 468.74 688.64 468.98C691.547 469.187 694.077 469.063 696.23 468.61C697.71 468.297 698.43 468.9 698.39 470.42L698.34 472.56C698.287 474.433 697.337 475.53 695.49 475.85C689.99 476.8 680.97 476.11 678.53 470.23C677.443 467.597 676.88 464.97 676.84 462.35C676.713 453.357 676.76 443.177 676.98 431.81C676.986 431.51 676.877 431.218 676.676 430.997C676.475 430.775 676.197 430.64 675.9 430.62L669.44 430.17C668.36 430.09 667.873 429.513 667.98 428.44L668.34 424.85C668.372 424.532 668.524 424.237 668.765 424.024C669.005 423.811 669.318 423.696 669.64 423.7L675.65 423.82C675.824 423.824 675.998 423.793 676.16 423.728C676.322 423.663 676.469 423.566 676.593 423.443C676.716 423.319 676.813 423.172 676.878 423.01C676.943 422.848 676.974 422.674 676.97 422.5C676.897 419.18 676.94 415.897 677.1 412.65C677.24 409.81 678.72 408.633 681.54 409.12C682.407 409.273 682.98 409.78 683.26 410.64C683.95 412.83 684.52 415.14 684.37 417.46C684.257 419.34 684.237 421.15 684.31 422.89Z" fill="#A67D66"/>
    <path d="M713.2 423.32C714.027 423.22 714.463 422.757 714.51 421.93L714.98 412.34C715.087 410.173 716.23 409.05 718.41 408.97L719.14 408.95C720.787 408.89 721.65 409.687 721.73 411.34L722.27 422.7C722.277 422.864 722.318 423.025 722.39 423.173C722.462 423.32 722.563 423.451 722.688 423.558C722.812 423.665 722.958 423.745 723.115 423.794C723.272 423.842 723.437 423.858 723.6 423.84C726.987 423.48 730.273 423.43 733.46 423.69C735.147 423.83 736.01 424.743 736.05 426.43L736.06 427.31C736.1 429.163 735.2 430.173 733.36 430.34C729.827 430.66 726.48 430.6 723.32 430.16C722.507 430.047 722.103 430.4 722.11 431.22C722.163 441.06 722.233 450.95 722.32 460.89C722.36 464.69 722.91 469.02 727.84 469.14C730.413 469.2 732.63 468.923 734.49 468.31C734.613 468.269 734.743 468.257 734.871 468.273C735 468.289 735.123 468.333 735.233 468.403C735.343 468.473 735.436 468.566 735.507 468.676C735.577 468.786 735.622 468.91 735.64 469.04L736.21 473.44C736.259 473.811 736.191 474.187 736.015 474.517C735.84 474.847 735.565 475.114 735.23 475.28C731.68 477.02 726.08 476.32 722.5 475.17C716.38 473.21 714.82 467.94 714.75 462.2C714.61 452.053 714.67 441.97 714.93 431.95C714.934 431.819 714.912 431.689 714.864 431.567C714.817 431.444 714.746 431.333 714.655 431.238C714.564 431.143 714.454 431.067 714.333 431.014C714.212 430.961 714.082 430.933 713.95 430.93C711.59 430.897 709.263 430.573 706.97 429.96C706.023 429.7 705.607 429.083 705.72 428.11L706.01 425.49C706.055 425.106 706.227 424.749 706.5 424.477C706.772 424.204 707.128 424.033 707.51 423.99L713.2 423.32Z" fill="#A67D66"/>
    <path d="M958.11 446.66C958.317 443.927 958.227 441.11 957.84 438.21C956.88 430.93 948.81 428.77 942.74 429.4C937.98 429.88 933.16 431.09 928.92 433.47C928.843 433.513 928.756 433.538 928.668 433.543C928.58 433.548 928.492 433.534 928.411 433.5C928.329 433.466 928.257 433.414 928.2 433.348C928.143 433.283 928.102 433.204 928.08 433.12C926.767 428.227 928.52 425.35 933.34 424.49C941.7 423 950.28 421.15 958.04 425.18C965.92 429.28 966.19 437.78 965.94 445.71C965.827 449.29 965.847 452.66 966 455.82C966.17 459.46 966.28 469.4 963.1 472.13C961.193 473.77 959.017 474.92 956.57 475.58C947.3 478.07 935.55 478.16 927.34 472.44C923.49 469.76 922.49 463.47 922.75 459.08C923.197 451.433 926.957 446.653 934.03 444.74C942.017 442.58 949.867 443.323 957.58 446.97C957.635 446.996 957.695 447.009 957.756 447.006C957.816 447.004 957.875 446.987 957.928 446.956C957.98 446.926 958.024 446.882 958.056 446.831C958.088 446.779 958.106 446.721 958.11 446.66ZM931.86 465.35C935.56 471.68 949.13 470.86 954.98 469.25C956.867 468.73 957.89 467.44 958.05 465.38C958.31 462.087 958.373 458.483 958.24 454.57C958.19 453.26 957.1 452.87 956.07 452.48C948.597 449.687 941.433 449.677 934.58 452.45C933.473 452.897 932.627 453.603 932.04 454.57C929.847 458.197 929.787 461.79 931.86 465.35Z" fill="#A67D66"/>
    <path d="M1054 424.24C1061.21 421.753 1068.78 421.96 1076.72 424.86C1078.75 425.6 1079.68 427.043 1079.51 429.19C1079.5 429.29 1079.5 429.39 1079.5 429.49C1079.55 431.763 1078.44 432.537 1076.19 431.81C1069.72 429.723 1063.53 429.407 1057.6 430.86C1050.13 432.69 1047.83 438.01 1047.39 444.96C1046.81 453.96 1046.6 465.19 1057.13 468.11C1063.33 469.83 1069.62 469.547 1076.01 467.26C1078.26 466.453 1079.43 467.163 1079.54 469.39C1079.55 469.483 1079.56 469.573 1079.57 469.66C1079.93 471.833 1079.06 473.327 1076.95 474.14C1066.94 478.02 1057.33 477.293 1048.14 471.96C1042.99 468.97 1040.87 462.95 1039.97 457.32C1038.78 449.9 1039.1 442.45 1041.56 435.46C1043.41 430.207 1047.56 426.467 1054 424.24Z" fill="#A67D66"/>
    <path d="M1254.78 474.71L1255.08 496.63C1255.09 497.95 1254.44 498.593 1253.12 498.56L1249.28 498.46C1247.79 498.42 1247.1 497.657 1247.21 496.17C1247.4 493.417 1247.5 490.867 1247.5 488.52C1247.47 470.2 1247.46 452.973 1247.45 436.84C1247.45 434.06 1247.83 428.23 1250.63 426.76C1260.62 421.54 1274.09 420.63 1283.54 427.53C1290.42 432.55 1292.26 440.91 1292.75 449.06C1293.26 457.56 1290.05 469.27 1281.99 473.48C1273.52 477.907 1264.65 478.183 1255.37 474.31C1255.3 474.284 1255.23 474.274 1255.16 474.282C1255.09 474.289 1255.03 474.314 1254.97 474.353C1254.91 474.393 1254.86 474.446 1254.83 474.508C1254.8 474.57 1254.78 474.64 1254.78 474.71ZM1254.96 436.91L1254.92 462.61C1254.92 463.566 1255.1 464.513 1255.47 465.397C1255.83 466.282 1256.36 467.086 1257.04 467.764C1257.71 468.441 1258.51 468.98 1259.4 469.348C1260.28 469.716 1261.22 469.907 1262.18 469.91L1269.21 469.92C1273.31 469.927 1277.24 468.141 1280.14 464.955C1283.05 461.769 1284.68 457.444 1284.69 452.93L1284.71 446.71C1284.71 444.475 1284.32 442.26 1283.55 440.194C1282.77 438.127 1281.64 436.249 1280.21 434.665C1278.77 433.082 1277.07 431.825 1275.2 430.966C1273.33 430.107 1271.32 429.664 1269.29 429.66L1262.26 429.65C1261.3 429.647 1260.36 429.833 1259.47 430.197C1258.59 430.56 1257.78 431.094 1257.11 431.768C1256.43 432.442 1255.89 433.243 1255.52 434.126C1255.15 435.008 1254.96 435.954 1254.96 436.91Z" fill="#A67D66"/>
    <path d="M1315 473.91C1314.91 473.862 1314.82 473.837 1314.72 473.838C1314.62 473.838 1314.52 473.863 1314.44 473.911C1314.35 473.959 1314.28 474.028 1314.23 474.112C1314.17 474.196 1314.14 474.292 1314.14 474.39C1313.96 478.123 1313.95 481.86 1314.12 485.6C1314.29 489.52 1314.06 493.4 1313.93 497.35C1313.9 498.31 1313.4 498.77 1312.44 498.73L1308.33 498.56C1307.29 498.513 1306.77 497.97 1306.77 496.93C1306.82 477.883 1306.84 457.71 1306.83 436.41C1306.83 432.24 1306.74 428.14 1311.14 426.18C1317.25 423.447 1323.48 422.303 1329.85 422.75C1339.96 423.46 1348.63 430.25 1350.86 440.32C1354.58 457.14 1350.16 475.19 1330.13 476.82C1324.35 477.293 1319.31 476.323 1315 473.91ZM1314.03 436.92L1314.25 462.64C1314.26 463.596 1314.46 464.541 1314.83 465.421C1315.21 466.3 1315.75 467.098 1316.43 467.767C1317.11 468.437 1317.92 468.965 1318.81 469.323C1319.7 469.68 1320.64 469.859 1321.6 469.85L1328.05 469.8C1330.13 469.782 1332.18 469.349 1334.1 468.525C1336.01 467.702 1337.75 466.504 1339.2 465.001C1340.66 463.497 1341.81 461.718 1342.59 459.763C1343.37 457.809 1343.76 455.718 1343.74 453.61L1343.66 445.43C1343.62 441.174 1341.92 437.106 1338.92 434.122C1335.93 431.139 1331.89 429.483 1327.69 429.52L1321.24 429.58C1319.31 429.598 1317.47 430.382 1316.12 431.758C1314.76 433.134 1314.01 434.991 1314.03 436.92Z" fill="#A67D66"/>
    <path d="M754.71 451.02C754.574 451.084 754.46 451.188 754.382 451.318C754.303 451.447 754.265 451.598 754.27 451.75C754.73 460.97 758.42 468.7 768.3 469.84C774.973 470.613 781.263 469.48 787.17 466.44C788.41 465.8 789.067 466.177 789.14 467.57L789.32 471.29C789.393 472.717 788.767 473.697 787.44 474.23C779.69 477.36 770.13 478.06 762.98 476.1C758.23 474.8 753.36 472.15 750.88 467.53C747.12 460.52 746.46 454.6 746.86 446.49C747.52 433.04 753.71 423.29 768.53 422.8C773.063 422.647 777.387 423.563 781.5 425.55C790.17 429.73 791.65 441.51 792.44 449.8C792.457 449.967 792.416 450.136 792.323 450.278C792.231 450.42 792.092 450.526 791.93 450.58C790.73 450.973 789.397 451.15 787.93 451.11C776.77 450.803 765.967 450.713 755.52 450.84C755.24 450.847 754.97 450.907 754.71 451.02ZM756 443.83L782.7 444.15C782.858 444.153 783.014 444.124 783.161 444.066C783.307 444.008 783.441 443.922 783.555 443.813C783.668 443.703 783.758 443.572 783.821 443.428C783.884 443.283 783.917 443.128 783.92 442.97V442.76C783.961 439.353 782.6 436.068 780.136 433.628C777.672 431.189 774.307 429.794 770.78 429.75L768.28 429.72C764.753 429.676 761.354 430.987 758.83 433.365C756.306 435.743 754.864 438.993 754.82 442.4V442.61C754.817 442.768 754.846 442.924 754.904 443.071C754.962 443.217 755.048 443.351 755.157 443.464C755.267 443.578 755.398 443.668 755.542 443.731C755.687 443.794 755.843 443.827 756 443.83Z" fill="#A67D66"/>
    <path d="M813.9 432.65L813.81 473.12C813.803 474.9 812.91 475.787 811.13 475.78L808.75 475.76C807.097 475.747 806.27 474.913 806.27 473.26L806.31 428.5C806.31 428.027 806.52 427.687 806.94 427.48C813.613 424.173 820.957 422.6 828.97 422.76C833.19 422.85 838.52 423.42 842.02 425.74C848.28 429.9 848.93 437.04 848.91 444.1C848.89 454.28 848.987 463.983 849.2 473.21C849.24 474.73 848.5 475.523 846.98 475.59L843.47 475.75C841.95 475.817 841.203 475.09 841.23 473.57C841.403 464.303 841.47 454.78 841.43 445C841.417 442.073 841.067 439.32 840.38 436.74C837.81 427.09 821.37 429.16 814.61 431.65C814.403 431.723 814.223 431.858 814.096 432.037C813.969 432.216 813.9 432.43 813.9 432.65Z" fill="#A67D66"/>
    <path d="M984.96 475.66C983.24 475.613 982.387 474.727 982.4 473L982.81 428.99C982.813 428.606 982.929 428.231 983.144 427.912C983.36 427.594 983.664 427.346 984.02 427.2C994.26 422.93 1004.66 421.2 1015.51 424.49C1023.81 426.99 1025.52 435.59 1025.48 443.26C1025.42 453.52 1025.38 463.577 1025.37 473.43C1025.37 474.843 1024.66 475.58 1023.25 475.64L1020.58 475.75C1018.66 475.837 1017.71 474.917 1017.72 472.99C1017.81 462.41 1017.79 451.767 1017.64 441.06C1017.53 433.34 1012.71 430.13 1005.52 429.64C1000.54 429.3 995.617 429.917 990.75 431.49C990.27 431.643 990.033 431.97 990.04 432.47L990.29 473.13C990.303 474.923 989.413 475.793 987.62 475.74L984.96 475.66Z" fill="#A67D66"/>
    <path d="M1098.84 451.44C1098.49 451.6 1098.33 451.873 1098.36 452.26C1099.02 461.7 1103.42 469.96 1114 470.26C1119.34 470.41 1125.93 469.71 1130.41 466.65C1131.9 465.637 1132.77 466.02 1133.04 467.8C1133.19 468.76 1133.27 469.767 1133.3 470.82C1133.34 472.587 1132.53 473.773 1130.88 474.38C1121.79 477.707 1113.05 477.987 1104.66 475.22C1095.54 472.22 1091.57 462.28 1090.88 453.49C1089.95 441.66 1092.5 427.72 1105.39 423.9C1111.31 422.147 1117.11 422.283 1122.78 424.31C1132.48 427.77 1135.76 439.25 1136.52 448.96C1136.54 449.166 1136.51 449.373 1136.44 449.568C1136.37 449.764 1136.27 449.943 1136.13 450.096C1135.99 450.248 1135.82 450.371 1135.63 450.456C1135.44 450.541 1135.24 450.586 1135.03 450.59C1123.96 450.797 1113.05 450.837 1102.31 450.71C1101.06 450.697 1099.91 450.94 1098.84 451.44ZM1099.24 443.93L1127.8 444.13C1127.87 444.13 1127.93 444.104 1127.98 444.057C1128.02 444.01 1128.05 443.946 1128.05 443.88L1128.06 442.75C1128.07 441.035 1127.75 439.334 1127.1 437.745C1126.46 436.156 1125.51 434.71 1124.3 433.489C1123.1 432.268 1121.67 431.296 1120.09 430.628C1118.52 429.961 1116.82 429.612 1115.11 429.6L1112.13 429.58C1110.42 429.568 1108.72 429.894 1107.13 430.54C1105.55 431.185 1104.1 432.137 1102.88 433.341C1101.66 434.546 1100.69 435.979 1100.03 437.559C1099.36 439.139 1099.01 440.835 1099 442.55L1098.99 443.68C1098.99 443.746 1099.02 443.81 1099.06 443.857C1099.11 443.904 1099.17 443.93 1099.24 443.93Z" fill="#A67D66"/>
</svg>
